{"asset":{"version":"2.0","generator":"cherry obj2gltf.py"},"scene":0,"scenes":[{"nodes":[0]}],"nodes":[{"mesh":0,"name":"Arrow"}],"meshes":[{"name":"Arrow","primitives":[{"attributes":{"POSITION":0,"NORMAL":1},"indices":2,"material":0},{"attributes":{"POSITION":3,"NORMAL":4},"indices":5,"material":1},{"attributes":{"POSITION":6,"NORMAL":7},"indices":8,"material":2},{"attributes":{"POSITION":9,"NORMAL":10},"indices":11,"material":3}]}],"materials":[{"name":"LightWood","pbrMetallicRoughness":{"baseColorFactor":[0.190718,0.083693,0.041016,1.0],"metallicFactor":0.0,"roughnessFactor":0.85}},{"name":"Steel","pbrMetallicRoughness":{"baseColorFactor":[0.30101,0.321582,0.351726,1.0],"metallicFactor":0.0,"roughnessFactor":0.55}},{"name":"LightSteel","pbrMetallicRoughness":{"baseColorFactor":[0.369662,0.392817,0.431584,1.0],"metallicFactor":0.0,"roughnessFactor":0.55}},{"name":"Red","pbrMetallicRoughness":{"baseColorFactor":[0.4569,0.109249,0.12092,1.0],"metallicFactor":0.0,"roughnessFactor":0.85}}],"accessors":[{"bufferView":0,"componentType":5126,"count":30,"type":"VEC3","min":[-0.022856,-0.019794,-0.005741],"max":[0.022856,0.019794,2.268556]},{"bufferView":1,"componentType":5126,"count":30,"type":"VEC3"},{"bufferView":2,"componentType":5123,"count":48,"type":"SCALAR"},{"bufferView":3,"componentType":5126,"count":32,"type":"VEC3","min":[-0.022856,-0.066155,2.268556],"max":[0.022856,0.066155,2.691597]},{"bufferView":4,"componentType":5126,"count":32,"type":"VEC3"},{"bufferView":5,"componentType":5123,"count":48,"type":"SCALAR"},{"bufferView":6,"componentType":5126,"count":22,"type":"VEC3","min":[-0.011428,-0.066155,2.268556],"max":[0.011428,0.066155,2.691597]},{"bufferView":7,"componentType":5126,"count":22,"type":"VEC3"},{"bufferView":8,"componentType":5123,"count":36,"type":"SCALAR"},{"bufferView":9,"componentType":5126,"count":252,"type":"VEC3","min":[-0.137528,-0.08521,-0.042227],"max":[0.136617,0.153064,0.390436]},{"bufferView":10,"componentType":5126,"count":252,"type":"VEC3"},{"bufferView":11,"componentType":5123,"count":540,"type":"SCALAR"}],"bufferViews":[{"buffer":0,"byteOffset":0,"byteLength":360,"target":34962},{"buffer":0,"byteOffset":360,"byteLength":360,"target":34962},{"buffer":0,"byteOffset":720,"byteLength":96,"target":34963},{"buffer":0,"byteOffset":816,"byteLength":384,"target":34962},{"buffer":0,"byteOffset":1200,"byteLength":384,"target":34962},{"buffer":0,"byteOffset":1584,"byteLength":96,"target":34963},{"buffer":0,"byteOffset":1680,"byteLength":264,"target":34962},{"buffer":0,"byteOffset":1944,"byteLength":264,"target":34962},{"buffer":0,"byteOffset":2208,"byteLength":72,"target":34963},{"buffer":0,"byteOffset":2280,"byteLength":3024,"target":34962},{"buffer":0,"byteOffset":5304,"byteLength":3024,"target":34962},{"buffer":0,"byteOffset":8328,"byteLength":1080,"target":34963}],"buffers":[{"uri":"Arrow.bin","byteLength":9408}]}