{"asset":{"version":"2.0","generator":"cherry obj2gltf.py"},"scene":0,"scenes":[{"nodes":[0]}],"nodes":[{"mesh":0,"name":"Bow_Wooden2"}],"meshes":[{"name":"Bow_Wooden2","primitives":[{"attributes":{"POSITION":0,"NORMAL":1},"indices":2,"material":0},{"attributes":{"POSITION":3,"NORMAL":4},"indices":5,"material":1},{"attributes":{"POSITION":6,"NORMAL":7},"indices":8,"material":2}]}],"materials":[{"name":"DarkWood","pbrMetallicRoughness":{"baseColorFactor":[0.13011,0.058112,0.029076,1.0],"metallicFactor":0.0,"roughnessFactor":0.85}},{"name":"LightWood","pbrMetallicRoughness":{"baseColorFactor":[0.190718,0.083693,0.041016,1.0],"metallicFactor":0.0,"roughnessFactor":0.85}},{"name":"White","pbrMetallicRoughness":{"baseColorFactor":[0.64,0.64,0.64,1.0],"metallicFactor":0.0,"roughnessFactor":0.85}}],"accessors":[{"bufferView":0,"componentType":5126,"count":1158,"type":"VEC3","min":[-0.357613,-2.718302,-0.121704],"max":[1.110309,2.718302,0.121706]},{"bufferView":1,"componentType":5126,"count":1158,"type":"VEC3"},{"bufferView":2,"componentType":5123,"count":1776,"type":"SCALAR"},{"bufferView":3,"componentType":5126,"count":96,"type":"VEC3","min":[-0.07823,-0.322621,-0.115391],"max":[0.115731,0.322621,0.115393]},{"bufferView":4,"componentType":5126,"count":96,"type":"VEC3"},{"bufferView":5,"componentType":5123,"count":144,"type":"SCALAR"},{"bufferView":6,"componentType":5126,"count":36,"type":"VEC3","min":[1.031102,-2.548703,-0.012509],"max":[1.054344,2.548703,0.014329]},{"bufferView":7,"componentType":5126,"count":36,"type":"VEC3"},{"bufferView":8,"componentType":5123,"count":72,"type":"SCALAR"}],"bufferViews":[{"buffer":0,"byteOffset":0,"byteLength":13896,"target":34962},{"buffer":0,"byteOffset":13896,"byteLength":13896,"target":34962},{"buffer":0,"byteOffset":27792,"byteLength":3552,"target":34963},{"buffer":0,"byteOffset":31344,"byteLength":1152,"target":34962},{"buffer":0,"byteOffset":32496,"byteLength":1152,"target":34962},{"buffer":0,"byteOffset":33648,"byteLength":288,"target":34963},{"buffer":0,"byteOffset":33936,"byteLength":432,"target":34962},{"buffer":0,"byteOffset":34368,"byteLength":432,"target":34962},{"buffer":0,"byteOffset":34800,"byteLength":144,"target":34963}],"buffers":[{"uri":"Bow_Wooden2.bin","byteLength":34944}]}