{"asset":{"version":"2.0","generator":"cherry obj2gltf.py"},"scene":0,"scenes":[{"nodes":[0]}],"nodes":[{"mesh":0,"name":"Bow_Wooden"}],"meshes":[{"name":"Bow_Wooden","primitives":[{"attributes":{"POSITION":0,"NORMAL":1},"indices":2,"material":0},{"attributes":{"POSITION":3,"NORMAL":4},"indices":5,"material":1},{"attributes":{"POSITION":6,"NORMAL":7},"indices":8,"material":2}]}],"materials":[{"name":"DarkWood","pbrMetallicRoughness":{"baseColorFactor":[0.13011,0.058112,0.029076,1.0],"metallicFactor":0.0,"roughnessFactor":0.85}},{"name":"LightWood","pbrMetallicRoughness":{"baseColorFactor":[0.190718,0.083693,0.041016,1.0],"metallicFactor":0.0,"roughnessFactor":0.85}},{"name":"White","pbrMetallicRoughness":{"baseColorFactor":[0.64,0.64,0.64,1.0],"metallicFactor":0.0,"roughnessFactor":0.85}}],"accessors":[{"bufferView":0,"componentType":5126,"count":1154,"type":"VEC3","min":[-0.384499,-2.718302,-0.121704],"max":[1.083423,2.718302,0.121706]},{"bufferView":1,"componentType":5126,"count":1154,"type":"VEC3"},{"bufferView":2,"componentType":5123,"count":1788,"type":"SCALAR"},{"bufferView":3,"componentType":5126,"count":216,"type":"VEC3","min":[-0.132153,-0.451246,-0.115391],"max":[0.179512,0.451246,0.115393]},{"bufferView":4,"componentType":5126,"count":216,"type":"VEC3"},{"bufferView":5,"componentType":5123,"count":324,"type":"SCALAR"},{"bufferView":6,"componentType":5126,"count":36,"type":"VEC3","min":[1.004216,-2.548703,-0.012509],"max":[1.027459,2.548703,0.014329]},{"bufferView":7,"componentType":5126,"count":36,"type":"VEC3"},{"bufferView":8,"componentType":5123,"count":72,"type":"SCALAR"}],"bufferViews":[{"buffer":0,"byteOffset":0,"byteLength":13848,"target":34962},{"buffer":0,"byteOffset":13848,"byteLength":13848,"target":34962},{"buffer":0,"byteOffset":27696,"byteLength":3576,"target":34963},{"buffer":0,"byteOffset":31272,"byteLength":2592,"target":34962},{"buffer":0,"byteOffset":33864,"byteLength":2592,"target":34962},{"buffer":0,"byteOffset":36456,"byteLength":648,"target":34963},{"buffer":0,"byteOffset":37104,"byteLength":432,"target":34962},{"buffer":0,"byteOffset":37536,"byteLength":432,"target":34962},{"buffer":0,"byteOffset":37968,"byteLength":144,"target":34963}],"buffers":[{"uri":"Bow_Wooden.bin","byteLength":38112}]}