{"asset":{"version":"2.0","generator":"cherry obj2gltf.py"},"scene":0,"scenes":[{"nodes":[0]}],"nodes":[{"mesh":0,"name":"Claymore"}],"meshes":[{"name":"Claymore","primitives":[{"attributes":{"POSITION":0,"NORMAL":1},"indices":2,"material":0},{"attributes":{"POSITION":3,"NORMAL":4},"indices":5,"material":1},{"attributes":{"POSITION":6,"NORMAL":7},"indices":8,"material":2},{"attributes":{"POSITION":9,"NORMAL":10},"indices":11,"material":3},{"attributes":{"POSITION":12,"NORMAL":13},"indices":14,"material":4}]}],"materials":[{"name":"LightRed","pbrMetallicRoughness":{"baseColorFactor":[0.431584,0.104109,0.097711,1.0],"metallicFactor":0.0,"roughnessFactor":0.85}},{"name":"Red","pbrMetallicRoughness":{"baseColorFactor":[0.351726,0.033849,0.048997,1.0],"metallicFactor":0.0,"roughnessFactor":0.85}},{"name":"DarkBrown","pbrMetallicRoughness":{"baseColorFactor":[0.072673,0.056288,0.051843,1.0],"metallicFactor":0.0,"roughnessFactor":0.85}},{"name":"Black","pbrMetallicRoughness":{"baseColorFactor":[0.024849,0.019733,0.018331,1.0],"metallicFactor":0.0,"roughnessFactor":0.85}},{"name":"DarkSteel","pbrMetallicRoughness":{"baseColorFactor":[0.213085,0.213085,0.178582,1.0],"metallicFactor":0.0,"roughnessFactor":0.55}}],"accessors":[{"bufferView":0,"componentType":5126,"count":332,"type":"VEC3","min":[-0.247003,1.81705,-0.027901],"max":[0.247003,6.272916,0.027901]},{"bufferView":1,"componentType":5126,"count":332,"type":"VEC3"},{"bufferView":2,"componentType":5123,"count":492,"type":"SCALAR"},{"bufferView":3,"componentType":5126,"count":215,"type":"VEC3","min":[-0.211329,1.81705,-0.027901],"max":[0.211329,6.155789,0.027901]},{"bufferView":4,"componentType":5126,"count":215,"type":"VEC3"},{"bufferView":5,"componentType":5123,"count":1008,"type":"SCALAR"},{"bufferView":6,"componentType":5126,"count":480,"type":"VEC3","min":[-0.123775,0.255043,-0.123775],"max":[0.123775,1.441529,0.123775]},{"bufferView":7,"componentType":5126,"count":480,"type":"VEC3"},{"bufferView":8,"componentType":5123,"count":720,"type":"SCALAR"},{"bufferView":9,"componentType":5126,"count":192,"type":"VEC3","min":[-0.095441,0.230442,-0.095373],"max":[0.095441,1.455623,0.095373]},{"bufferView":10,"componentType":5126,"count":192,"type":"VEC3"},{"bufferView":11,"componentType":5123,"count":288,"type":"SCALAR"},{"bufferView":12,"componentType":5126,"count":310,"type":"VEC3","min":[-0.488973,-0.321694,-0.135642],"max":[0.488973,2.09158,0.135642]},{"bufferView":13,"componentType":5126,"count":310,"type":"VEC3"},{"bufferView":14,"componentType":5123,"count":591,"type":"SCALAR"}],"bufferViews":[{"buffer":0,"byteOffset":0,"byteLength":3984,"target":34962},{"buffer":0,"byteOffset":3984,"byteLength":3984,"target":34962},{"buffer":0,"byteOffset":7968,"byteLength":984,"target":34963},{"buffer":0,"byteOffset":8952,"byteLength":2580,"target":34962},{"buffer":0,"byteOffset":11532,"byteLength":2580,"target":34962},{"buffer":0,"byteOffset":14112,"byteLength":2016,"target":34963},{"buffer":0,"byteOffset":16128,"byteLength":5760,"target":34962},{"buffer":0,"byteOffset":21888,"byteLength":5760,"target":34962},{"buffer":0,"byteOffset":27648,"byteLength":1440,"target":34963},{"buffer":0,"byteOffset":29088,"byteLength":2304,"target":34962},{"buffer":0,"byteOffset":31392,"byteLength":2304,"target":34962},{"buffer":0,"byteOffset":33696,"byteLength":576,"target":34963},{"buffer":0,"byteOffset":34272,"byteLength":3720,"target":34962},{"buffer":0,"byteOffset":37992,"byteLength":3720,"target":34962},{"buffer":0,"byteOffset":41712,"byteLength":1182,"target":34963}],"buffers":[{"uri":"Claymore.bin","byteLength":42894}]}