{"asset":{"version":"2.0","generator":"cherry obj2gltf.py"},"scene":0,"scenes":[{"nodes":[0]}],"nodes":[{"mesh":0,"name":"Dagger"}],"meshes":[{"name":"Dagger","primitives":[{"attributes":{"POSITION":0,"NORMAL":1},"indices":2,"material":0},{"attributes":{"POSITION":3,"NORMAL":4},"indices":5,"material":1},{"attributes":{"POSITION":6,"NORMAL":7},"indices":8,"material":2},{"attributes":{"POSITION":9,"NORMAL":10},"indices":11,"material":3},{"attributes":{"POSITION":12,"NORMAL":13},"indices":14,"material":4}]}],"materials":[{"name":"Steel","pbrMetallicRoughness":{"baseColorFactor":[0.30101,0.321582,0.351726,1.0],"metallicFactor":0.0,"roughnessFactor":0.55}},{"name":"LightWood","pbrMetallicRoughness":{"baseColorFactor":[0.190718,0.083693,0.041016,1.0],"metallicFactor":0.0,"roughnessFactor":0.85}},{"name":"DarkWood","pbrMetallicRoughness":{"baseColorFactor":[0.13011,0.058112,0.029076,1.0],"metallicFactor":0.0,"roughnessFactor":0.85}},{"name":"LightSteel","pbrMetallicRoughness":{"baseColorFactor":[0.369662,0.392817,0.431584,1.0],"metallicFactor":0.0,"roughnessFactor":0.55}},{"name":"DarkSteel","pbrMetallicRoughness":{"baseColorFactor":[0.213085,0.213085,0.178582,1.0],"metallicFactor":0.0,"roughnessFactor":0.55}}],"accessors":[{"bufferView":0,"componentType":5126,"count":130,"type":"VEC3","min":[-0.11717,0.307114,-0.017581],"max":[0.24204,1.961236,0.017581]},{"bufferView":1,"componentType":5126,"count":130,"type":"VEC3"},{"bufferView":2,"componentType":5123,"count":576,"type":"SCALAR"},{"bufferView":3,"componentType":5126,"count":384,"type":"VEC3","min":[-0.108927,-0.367071,-0.104141],"max":[0.097011,0.206615,0.104141]},{"bufferView":4,"componentType":5126,"count":384,"type":"VEC3"},{"bufferView":5,"componentType":5123,"count":576,"type":"SCALAR"},{"bufferView":6,"componentType":5126,"count":96,"type":"VEC3","min":[-0.075973,-0.377848,-0.07591],"max":[0.077457,0.21618,0.07591]},{"bufferView":7,"componentType":5126,"count":96,"type":"VEC3"},{"bufferView":8,"componentType":5123,"count":144,"type":"SCALAR"},{"bufferView":9,"componentType":5126,"count":232,"type":"VEC3","min":[-0.151746,0.307114,-0.017581],"max":[0.272312,2.027074,0.017581]},{"bufferView":10,"componentType":5126,"count":232,"type":"VEC3"},{"bufferView":11,"componentType":5123,"count":348,"type":"SCALAR"},{"bufferView":12,"componentType":5126,"count":299,"type":"VEC3","min":[-0.283471,-0.581349,-0.084387],"max":[0.27451,0.332567,0.084387]},{"bufferView":13,"componentType":5126,"count":299,"type":"VEC3"},{"bufferView":14,"componentType":5123,"count":534,"type":"SCALAR"}],"bufferViews":[{"buffer":0,"byteOffset":0,"byteLength":1560,"target":34962},{"buffer":0,"byteOffset":1560,"byteLength":1560,"target":34962},{"buffer":0,"byteOffset":3120,"byteLength":1152,"target":34963},{"buffer":0,"byteOffset":4272,"byteLength":4608,"target":34962},{"buffer":0,"byteOffset":8880,"byteLength":4608,"target":34962},{"buffer":0,"byteOffset":13488,"byteLength":1152,"target":34963},{"buffer":0,"byteOffset":14640,"byteLength":1152,"target":34962},{"buffer":0,"byteOffset":15792,"byteLength":1152,"target":34962},{"buffer":0,"byteOffset":16944,"byteLength":288,"target":34963},{"buffer":0,"byteOffset":17232,"byteLength":2784,"target":34962},{"buffer":0,"byteOffset":20016,"byteLength":2784,"target":34962},{"buffer":0,"byteOffset":22800,"byteLength":696,"target":34963},{"buffer":0,"byteOffset":23496,"byteLength":3588,"target":34962},{"buffer":0,"byteOffset":27084,"byteLength":3588,"target":34962},{"buffer":0,"byteOffset":30672,"byteLength":1068,"target":34963}],"buffers":[{"uri":"Dagger.bin","byteLength":31740}]}