{"asset":{"version":"2.0","generator":"cherry obj2gltf.py"},"scene":0,"scenes":[{"nodes":[0]}],"nodes":[{"mesh":0,"name":"Hammer_Small"}],"meshes":[{"name":"Hammer_Small","primitives":[{"attributes":{"POSITION":0,"NORMAL":1},"indices":2,"material":0},{"attributes":{"POSITION":3,"NORMAL":4},"indices":5,"material":1},{"attributes":{"POSITION":6,"NORMAL":7},"indices":8,"material":2},{"attributes":{"POSITION":9,"NORMAL":10},"indices":11,"material":3}]}],"materials":[{"name":"Steel","pbrMetallicRoughness":{"baseColorFactor":[0.30101,0.321582,0.351726,1.0],"metallicFactor":0.0,"roughnessFactor":0.55}},{"name":"LightWood","pbrMetallicRoughness":{"baseColorFactor":[0.190718,0.083693,0.041016,1.0],"metallicFactor":0.0,"roughnessFactor":0.85}},{"name":"DarkWood","pbrMetallicRoughness":{"baseColorFactor":[0.13011,0.058112,0.029076,1.0],"metallicFactor":0.0,"roughnessFactor":0.85}},{"name":"LightSteel","pbrMetallicRoughness":{"baseColorFactor":[0.369662,0.392817,0.431584,1.0],"metallicFactor":0.0,"roughnessFactor":0.55}}],"accessors":[{"bufferView":0,"componentType":5126,"count":1097,"type":"VEC3","min":[-0.328998,-1.179391,-0.402435],"max":[1.108546,3.150333,0.403273]},{"bufferView":1,"componentType":5126,"count":1097,"type":"VEC3"},{"bufferView":2,"componentType":5123,"count":1830,"type":"SCALAR"},{"bufferView":3,"componentType":5126,"count":960,"type":"VEC3","min":[-0.378088,-0.619175,-0.323961],"max":[0.373792,2.865934,0.323961]},{"bufferView":4,"componentType":5126,"count":960,"type":"VEC3"},{"bufferView":5,"componentType":5123,"count":1440,"type":"SCALAR"},{"bufferView":6,"componentType":5126,"count":256,"type":"VEC3","min":[-0.127165,-0.786518,-0.120329],"max":[0.119857,2.017617,0.120329]},{"bufferView":7,"componentType":5126,"count":256,"type":"VEC3"},{"bufferView":8,"componentType":5123,"count":384,"type":"SCALAR"},{"bufferView":9,"componentType":5126,"count":480,"type":"VEC3","min":[-0.020916,1.723626,-0.33914],"max":[0.018545,2.444197,0.33914]},{"bufferView":10,"componentType":5126,"count":480,"type":"VEC3"},{"bufferView":11,"componentType":5123,"count":768,"type":"SCALAR"}],"bufferViews":[{"buffer":0,"byteOffset":0,"byteLength":13164,"target":34962},{"buffer":0,"byteOffset":13164,"byteLength":13164,"target":34962},{"buffer":0,"byteOffset":26328,"byteLength":3660,"target":34963},{"buffer":0,"byteOffset":29988,"byteLength":11520,"target":34962},{"buffer":0,"byteOffset":41508,"byteLength":11520,"target":34962},{"buffer":0,"byteOffset":53028,"byteLength":2880,"target":34963},{"buffer":0,"byteOffset":55908,"byteLength":3072,"target":34962},{"buffer":0,"byteOffset":58980,"byteLength":3072,"target":34962},{"buffer":0,"byteOffset":62052,"byteLength":768,"target":34963},{"buffer":0,"byteOffset":62820,"byteLength":5760,"target":34962},{"buffer":0,"byteOffset":68580,"byteLength":5760,"target":34962},{"buffer":0,"byteOffset":74340,"byteLength":1536,"target":34963}],"buffers":[{"uri":"Hammer_Small.bin","byteLength":75876}]}