{"asset":{"version":"2.0","generator":"cherry obj2gltf.py"},"scene":0,"scenes":[{"nodes":[0]}],"nodes":[{"mesh":0,"name":"Scythe"}],"meshes":[{"name":"Scythe","primitives":[{"attributes":{"POSITION":0,"NORMAL":1},"indices":2,"material":0},{"attributes":{"POSITION":3,"NORMAL":4},"indices":5,"material":1},{"attributes":{"POSITION":6,"NORMAL":7},"indices":8,"material":2},{"attributes":{"POSITION":9,"NORMAL":10},"indices":11,"material":3}]}],"materials":[{"name":"Steel","pbrMetallicRoughness":{"baseColorFactor":[0.30101,0.321582,0.351726,1.0],"metallicFactor":0.0,"roughnessFactor":0.55}},{"name":"LightWood","pbrMetallicRoughness":{"baseColorFactor":[0.190718,0.083693,0.041016,1.0],"metallicFactor":0.0,"roughnessFactor":0.85}},{"name":"DarkWood","pbrMetallicRoughness":{"baseColorFactor":[0.13011,0.058112,0.029076,1.0],"metallicFactor":0.0,"roughnessFactor":0.85}},{"name":"LightSteel","pbrMetallicRoughness":{"baseColorFactor":[0.369662,0.392817,0.431584,1.0],"metallicFactor":0.0,"roughnessFactor":0.55}}],"accessors":[{"bufferView":0,"componentType":5126,"count":270,"type":"VEC3","min":[-0.563437,2.241313,-0.029606],"max":[2.395319,3.032638,0.036446]},{"bufferView":1,"componentType":5126,"count":270,"type":"VEC3"},{"bufferView":2,"componentType":5123,"count":624,"type":"SCALAR"},{"bufferView":3,"componentType":5126,"count":1344,"type":"VEC3","min":[-0.431767,-1.808328,-0.13853],"max":[0.572145,3.072289,0.13853]},{"bufferView":4,"componentType":5126,"count":1344,"type":"VEC3"},{"bufferView":5,"componentType":5123,"count":2016,"type":"SCALAR"},{"bufferView":6,"componentType":5126,"count":624,"type":"VEC3","min":[-0.416518,-2.215465,-0.107932],"max":[0.288133,3.366398,0.107905]},{"bufferView":7,"componentType":5126,"count":624,"type":"VEC3"},{"bufferView":8,"componentType":5123,"count":948,"type":"SCALAR"},{"bufferView":9,"componentType":5126,"count":230,"type":"VEC3","min":[-0.563437,2.193229,-0.029606],"max":[2.465296,3.033925,0.036446]},{"bufferView":10,"componentType":5126,"count":230,"type":"VEC3"},{"bufferView":11,"componentType":5123,"count":342,"type":"SCALAR"}],"bufferViews":[{"buffer":0,"byteOffset":0,"byteLength":3240,"target":34962},{"buffer":0,"byteOffset":3240,"byteLength":3240,"target":34962},{"buffer":0,"byteOffset":6480,"byteLength":1248,"target":34963},{"buffer":0,"byteOffset":7728,"byteLength":16128,"target":34962},{"buffer":0,"byteOffset":23856,"byteLength":16128,"target":34962},{"buffer":0,"byteOffset":39984,"byteLength":4032,"target":34963},{"buffer":0,"byteOffset":44016,"byteLength":7488,"target":34962},{"buffer":0,"byteOffset":51504,"byteLength":7488,"target":34962},{"buffer":0,"byteOffset":58992,"byteLength":1896,"target":34963},{"buffer":0,"byteOffset":60888,"byteLength":2760,"target":34962},{"buffer":0,"byteOffset":63648,"byteLength":2760,"target":34962},{"buffer":0,"byteOffset":66408,"byteLength":684,"target":34963}],"buffers":[{"uri":"Scythe.bin","byteLength":67092}]}