{"asset":{"version":"2.0","generator":"cherry obj2gltf.py"},"scene":0,"scenes":[{"nodes":[0]}],"nodes":[{"mesh":0,"name":"Shield_Heater"}],"meshes":[{"name":"Shield_Heater","primitives":[{"attributes":{"POSITION":0,"NORMAL":1},"indices":2,"material":0},{"attributes":{"POSITION":3,"NORMAL":4},"indices":5,"material":1},{"attributes":{"POSITION":6,"NORMAL":7},"indices":8,"material":2},{"attributes":{"POSITION":9,"NORMAL":10},"indices":11,"material":3}]}],"materials":[{"name":"Steel","pbrMetallicRoughness":{"baseColorFactor":[0.30101,0.321582,0.351726,1.0],"metallicFactor":0.0,"roughnessFactor":0.55}},{"name":"DarkWood","pbrMetallicRoughness":{"baseColorFactor":[0.13011,0.058112,0.029076,1.0],"metallicFactor":0.0,"roughnessFactor":0.85}},{"name":"LightWood","pbrMetallicRoughness":{"baseColorFactor":[0.190718,0.083693,0.041016,1.0],"metallicFactor":0.0,"roughnessFactor":0.85}},{"name":"LightSteel","pbrMetallicRoughness":{"baseColorFactor":[0.369662,0.392817,0.431584,1.0],"metallicFactor":0.0,"roughnessFactor":0.55}}],"accessors":[{"bufferView":0,"componentType":5126,"count":812,"type":"VEC3","min":[-1.002508,-1.302494,-0.020945],"max":[1.002508,1.261231,0.298969]},{"bufferView":1,"componentType":5126,"count":812,"type":"VEC3"},{"bufferView":2,"componentType":5123,"count":1554,"type":"SCALAR"},{"bufferView":3,"componentType":5126,"count":178,"type":"VEC3","min":[-0.815511,-1.064472,-0.293712],"max":[0.815511,1.069753,0.105749]},{"bufferView":4,"componentType":5126,"count":178,"type":"VEC3"},{"bufferView":5,"componentType":5123,"count":336,"type":"SCALAR"},{"bufferView":6,"componentType":5126,"count":642,"type":"VEC3","min":[-0.888535,-1.175226,0.069773],"max":[0.888535,1.150548,0.187349]},{"bufferView":7,"componentType":5126,"count":642,"type":"VEC3"},{"bufferView":8,"componentType":5123,"count":1368,"type":"SCALAR"},{"bufferView":9,"componentType":5126,"count":1658,"type":"VEC3","min":[-0.936383,-1.204989,0.165108],"max":[0.936383,1.187928,0.303331]},{"bufferView":10,"componentType":5126,"count":1658,"type":"VEC3"},{"bufferView":11,"componentType":5123,"count":2646,"type":"SCALAR"}],"bufferViews":[{"buffer":0,"byteOffset":0,"byteLength":9744,"target":34962},{"buffer":0,"byteOffset":9744,"byteLength":9744,"target":34962},{"buffer":0,"byteOffset":19488,"byteLength":3108,"target":34963},{"buffer":0,"byteOffset":22596,"byteLength":2136,"target":34962},{"buffer":0,"byteOffset":24732,"byteLength":2136,"target":34962},{"buffer":0,"byteOffset":26868,"byteLength":672,"target":34963},{"buffer":0,"byteOffset":27540,"byteLength":7704,"target":34962},{"buffer":0,"byteOffset":35244,"byteLength":7704,"target":34962},{"buffer":0,"byteOffset":42948,"byteLength":2736,"target":34963},{"buffer":0,"byteOffset":45684,"byteLength":19896,"target":34962},{"buffer":0,"byteOffset":65580,"byteLength":19896,"target":34962},{"buffer":0,"byteOffset":85476,"byteLength":5292,"target":34963}],"buffers":[{"uri":"Shield_Heater.bin","byteLength":90768}]}