{"asset":{"version":"2.0","generator":"cherry obj2gltf.py"},"scene":0,"scenes":[{"nodes":[0]}],"nodes":[{"mesh":0,"name":"Shield_Celtic_Golden"}],"meshes":[{"name":"Shield_Celtic_Golden","primitives":[{"attributes":{"POSITION":0,"NORMAL":1},"indices":2,"material":0},{"attributes":{"POSITION":3,"NORMAL":4},"indices":5,"material":1},{"attributes":{"POSITION":6,"NORMAL":7},"indices":8,"material":2},{"attributes":{"POSITION":9,"NORMAL":10},"indices":11,"material":3}]}],"materials":[{"name":"Gold","pbrMetallicRoughness":{"baseColorFactor":[0.4569,0.374227,0.127169,1.0],"metallicFactor":0.0,"roughnessFactor":0.55}},{"name":"LightBlue","pbrMetallicRoughness":{"baseColorFactor":[0.226519,0.416797,0.4569,1.0],"metallicFactor":0.0,"roughnessFactor":0.85}},{"name":"Green","pbrMetallicRoughness":{"baseColorFactor":[0.07807,0.4569,0.152961,1.0],"metallicFactor":0.0,"roughnessFactor":0.85}},{"name":"LightGold","pbrMetallicRoughness":{"baseColorFactor":[0.629913,0.514987,0.172721,1.0],"metallicFactor":0.0,"roughnessFactor":0.55}}],"accessors":[{"bufferView":0,"componentType":5126,"count":1018,"type":"VEC3","min":[-1.04928,-2.267177,-0.706369],"max":[1.04928,2.013,0.496322]},{"bufferView":1,"componentType":5126,"count":1018,"type":"VEC3"},{"bufferView":2,"componentType":5123,"count":1716,"type":"SCALAR"},{"bufferView":3,"componentType":5126,"count":124,"type":"VEC3","min":[-0.950478,-1.864357,-0.380012],"max":[0.950478,1.696681,0.212954]},{"bufferView":4,"componentType":5126,"count":124,"type":"VEC3"},{"bufferView":5,"componentType":5123,"count":180,"type":"SCALAR"},{"bufferView":6,"componentType":5126,"count":192,"type":"VEC3","min":[-0.297375,-0.342153,0.406978],"max":[0.301406,0.370484,0.706369]},{"bufferView":7,"componentType":5126,"count":192,"type":"VEC3"},{"bufferView":8,"componentType":5123,"count":288,"type":"SCALAR"},{"bufferView":9,"componentType":5126,"count":168,"type":"VEC3","min":[-0.497304,-0.462973,-0.189889],"max":[0.485403,0.214804,0.111528]},{"bufferView":10,"componentType":5126,"count":168,"type":"VEC3"},{"bufferView":11,"componentType":5123,"count":312,"type":"SCALAR"}],"bufferViews":[{"buffer":0,"byteOffset":0,"byteLength":12216,"target":34962},{"buffer":0,"byteOffset":12216,"byteLength":12216,"target":34962},{"buffer":0,"byteOffset":24432,"byteLength":3432,"target":34963},{"buffer":0,"byteOffset":27864,"byteLength":1488,"target":34962},{"buffer":0,"byteOffset":29352,"byteLength":1488,"target":34962},{"buffer":0,"byteOffset":30840,"byteLength":360,"target":34963},{"buffer":0,"byteOffset":31200,"byteLength":2304,"target":34962},{"buffer":0,"byteOffset":33504,"byteLength":2304,"target":34962},{"buffer":0,"byteOffset":35808,"byteLength":576,"target":34963},{"buffer":0,"byteOffset":36384,"byteLength":2016,"target":34962},{"buffer":0,"byteOffset":38400,"byteLength":2016,"target":34962},{"buffer":0,"byteOffset":40416,"byteLength":624,"target":34963}],"buffers":[{"uri":"Shield_Celtic_Golden.bin","byteLength":41040}]}