{"asset":{"version":"2.0","generator":"cherry obj2gltf.py"},"scene":0,"scenes":[{"nodes":[0]}],"nodes":[{"mesh":0,"name":"Shield_Round"}],"meshes":[{"name":"Shield_Round","primitives":[{"attributes":{"POSITION":0,"NORMAL":1},"indices":2,"material":0},{"attributes":{"POSITION":3,"NORMAL":4},"indices":5,"material":1},{"attributes":{"POSITION":6,"NORMAL":7},"indices":8,"material":2},{"attributes":{"POSITION":9,"NORMAL":10},"indices":11,"material":3}]}],"materials":[{"name":"LightWood","pbrMetallicRoughness":{"baseColorFactor":[0.190718,0.083693,0.041016,1.0],"metallicFactor":0.0,"roughnessFactor":0.85}},{"name":"Steel","pbrMetallicRoughness":{"baseColorFactor":[0.30101,0.321582,0.351726,1.0],"metallicFactor":0.0,"roughnessFactor":0.55}},{"name":"DarkWood","pbrMetallicRoughness":{"baseColorFactor":[0.13011,0.058112,0.029076,1.0],"metallicFactor":0.0,"roughnessFactor":0.85}},{"name":"LightSteel","pbrMetallicRoughness":{"baseColorFactor":[0.369662,0.392817,0.431584,1.0],"metallicFactor":0.0,"roughnessFactor":0.55}}],"accessors":[{"bufferView":0,"componentType":5126,"count":642,"type":"VEC3","min":[-0.820295,-0.887217,-0.023366],"max":[0.814873,0.848963,0.231237]},{"bufferView":1,"componentType":5126,"count":642,"type":"VEC3"},{"bufferView":2,"componentType":5123,"count":1044,"type":"SCALAR"},{"bufferView":3,"componentType":5126,"count":464,"type":"VEC3","min":[-1.0,-1.0,-0.123588],"max":[1.0,1.0,0.140381]},{"bufferView":4,"componentType":5126,"count":464,"type":"VEC3"},{"bufferView":5,"componentType":5123,"count":714,"type":"SCALAR"},{"bufferView":6,"componentType":5126,"count":376,"type":"VEC3","min":[-0.806169,-0.806169,-0.37244],"max":[0.806169,0.806169,0.110991]},{"bufferView":7,"componentType":5126,"count":376,"type":"VEC3"},{"bufferView":8,"componentType":5123,"count":642,"type":"SCALAR"},{"bufferView":9,"componentType":5126,"count":480,"type":"VEC3","min":[-0.932669,-0.932669,0.086622],"max":[0.932669,0.932669,0.195044]},{"bufferView":10,"componentType":5126,"count":480,"type":"VEC3"},{"bufferView":11,"componentType":5123,"count":768,"type":"SCALAR"}],"bufferViews":[{"buffer":0,"byteOffset":0,"byteLength":7704,"target":34962},{"buffer":0,"byteOffset":7704,"byteLength":7704,"target":34962},{"buffer":0,"byteOffset":15408,"byteLength":2088,"target":34963},{"buffer":0,"byteOffset":17496,"byteLength":5568,"target":34962},{"buffer":0,"byteOffset":23064,"byteLength":5568,"target":34962},{"buffer":0,"byteOffset":28632,"byteLength":1428,"target":34963},{"buffer":0,"byteOffset":30060,"byteLength":4512,"target":34962},{"buffer":0,"byteOffset":34572,"byteLength":4512,"target":34962},{"buffer":0,"byteOffset":39084,"byteLength":1284,"target":34963},{"buffer":0,"byteOffset":40368,"byteLength":5760,"target":34962},{"buffer":0,"byteOffset":46128,"byteLength":5760,"target":34962},{"buffer":0,"byteOffset":51888,"byteLength":1536,"target":34963}],"buffers":[{"uri":"Shield_Round.bin","byteLength":53424}]}