{"asset":{"version":"2.0","generator":"cherry-adventure hat extractor"},"scene":0,"scenes":[{"nodes":[0]}],"nodes":[{"mesh":0,"name":"hair_mage"}],"meshes":[{"name":"hair_mage","primitives":[{"attributes":{"POSITION":0,"NORMAL":1,"TEXCOORD_0":2},"indices":3,"material":0},{"attributes":{"POSITION":4,"NORMAL":5,"TEXCOORD_0":6},"indices":7,"material":1}]}],"materials":[{"name":"Black","doubleSided":false,"pbrMetallicRoughness":{"baseColorFactor":[0.019794002175331116,0.03207586705684662,0.037408243864774704,1],"metallicFactor":0,"roughnessFactor":0.5}},{"name":"Red","doubleSided":false,"pbrMetallicRoughness":{"baseColorFactor":[1,0.02505292184650898,0.11802464723587036,1],"metallicFactor":0,"roughnessFactor":0.20000000298023224}}],"accessors":[{"bufferView":0,"componentType":5126,"count":552,"type":"VEC3","min":[-0.5556272566318512,0.0,-0.5440457463264465],"max":[0.5556272566318512,1.4153375029563904,0.5440457463264465]},{"bufferView":1,"componentType":5126,"count":552,"type":"VEC3"},{"bufferView":2,"componentType":5126,"count":552,"type":"VEC2"},{"bufferView":3,"componentType":5123,"count":2820,"type":"SCALAR"},{"bufferView":4,"componentType":5126,"count":40,"type":"VEC3","min":[-0.09913726150989532,0.2931070178747177,-0.44407975673675537],"max":[0.09913721680641174,0.40089723095297813,-0.3208651840686798]},{"bufferView":5,"componentType":5126,"count":40,"type":"VEC3"},{"bufferView":6,"componentType":5126,"count":40,"type":"VEC2"},{"bufferView":7,"componentType":5123,"count":192,"type":"SCALAR"}],"bufferViews":[{"buffer":0,"byteOffset":0,"byteLength":6624,"target":34962},{"buffer":0,"byteOffset":6624,"byteLength":6624,"target":34962},{"buffer":0,"byteOffset":13248,"byteLength":4416,"target":34962},{"buffer":0,"byteOffset":17664,"byteLength":5640,"target":34963},{"buffer":0,"byteOffset":23304,"byteLength":480,"target":34962},{"buffer":0,"byteOffset":23784,"byteLength":480,"target":34962},{"buffer":0,"byteOffset":24264,"byteLength":320,"target":34962},{"buffer":0,"byteOffset":24584,"byteLength":384,"target":34963}],"buffers":[{"byteLength":24968,"uri":"hair_mage.bin"}]}