{"asset":{"version":"2.0","generator":"cherry-adventure hat extractor"},"scene":0,"scenes":[{"nodes":[0]}],"nodes":[{"mesh":0,"name":"hair_rogue"}],"meshes":[{"name":"hair_rogue","primitives":[{"attributes":{"POSITION":0,"NORMAL":1,"TEXCOORD_0":2},"indices":3,"material":0}]}],"materials":[{"name":"BrownDark","doubleSided":false,"pbrMetallicRoughness":{"baseColorFactor":[0.32694560289382935,0.10152623057365417,0.05927089974284172,1],"metallicFactor":0,"roughnessFactor":0.4000000059604645}}],"accessors":[{"bufferView":0,"componentType":5126,"count":566,"type":"VEC3","min":[-0.5620152950286865,0.0,-0.5440594255924225],"max":[0.5620152950286865,1.2202383428812027,0.5440594255924225]},{"bufferView":1,"componentType":5126,"count":566,"type":"VEC3"},{"bufferView":2,"componentType":5126,"count":566,"type":"VEC2"},{"bufferView":3,"componentType":5123,"count":2916,"type":"SCALAR"}],"bufferViews":[{"buffer":0,"byteOffset":0,"byteLength":6792,"target":34962},{"buffer":0,"byteOffset":6792,"byteLength":6792,"target":34962},{"buffer":0,"byteOffset":13584,"byteLength":4528,"target":34962},{"buffer":0,"byteOffset":18112,"byteLength":5832,"target":34963}],"buffers":[{"byteLength":23944,"uri":"hair_rogue.bin"}]}