{"asset":{"version":"2.0","generator":"cherry-adventure hat extractor"},"scene":0,"scenes":[{"nodes":[0]}],"nodes":[{"mesh":0,"name":"cape_knight"}],"meshes":[{"name":"cape_knight","primitives":[{"attributes":{"POSITION":0,"NORMAL":1,"TEXCOORD_0":2},"indices":3,"material":0}]}],"materials":[{"name":"cape","doubleSided":true,"pbrMetallicRoughness":{"metallicFactor":0,"roughnessFactor":0.78,"baseColorFactor":[1,1,1,1]}}],"accessors":[{"bufferView":0,"componentType":5126,"count":56,"type":"VEC3","min":[-0.4853784143924713,0.0,-0.17129443399608135],"max":[0.4853784143924713,1.1419447660446167,0.17129443399608135]},{"bufferView":1,"componentType":5126,"count":56,"type":"VEC3"},{"bufferView":2,"componentType":5126,"count":56,"type":"VEC2"},{"bufferView":3,"componentType":5123,"count":252,"type":"SCALAR"}],"bufferViews":[{"buffer":0,"byteOffset":0,"byteLength":672,"target":34962},{"buffer":0,"byteOffset":672,"byteLength":672,"target":34962},{"buffer":0,"byteOffset":1344,"byteLength":448,"target":34962},{"buffer":0,"byteOffset":1792,"byteLength":504,"target":34963}],"buffers":[{"byteLength":2296,"uri":"cape.bin"}]}