{"asset":{"version":"2.0","generator":"cherry-adventure hat extractor"},"scene":0,"scenes":[{"nodes":[0]}],"nodes":[{"mesh":0,"name":"cloak_skwarrior"}],"meshes":[{"name":"cloak_skwarrior","primitives":[{"attributes":{"POSITION":0,"NORMAL":1,"TEXCOORD_0":2},"indices":3,"material":0}]}],"materials":[{"name":"skeleton","doubleSided":false,"pbrMetallicRoughness":{"baseColorTexture":{"index":0},"metallicFactor":0,"roughnessFactor":0.5}}],"accessors":[{"bufferView":0,"componentType":5126,"count":344,"type":"VEC3","min":[-0.43566128611564636,0.0,-0.37242279946804047],"max":[0.43566128611564636,0.5141668319702148,0.37242279946804047]},{"bufferView":1,"componentType":5126,"count":344,"type":"VEC3"},{"bufferView":2,"componentType":5126,"count":344,"type":"VEC2"},{"bufferView":3,"componentType":5123,"count":1044,"type":"SCALAR"}],"bufferViews":[{"buffer":0,"byteOffset":0,"byteLength":4128,"target":34962},{"buffer":0,"byteOffset":4128,"byteLength":4128,"target":34962},{"buffer":0,"byteOffset":8256,"byteLength":2752,"target":34962},{"buffer":0,"byteOffset":11008,"byteLength":2088,"target":34963}],"buffers":[{"byteLength":13096,"uri":"mantle.bin"}],"images":[{"uri":"skeleton_texture.png"}],"samplers":[{"magFilter":9729,"minFilter":9987}],"textures":[{"source":0,"sampler":0}]}