{"asset":{"version":"2.0","generator":"cherry vil.py"},"scene":0,"scenes":[{"nodes":[0]}],"nodes":[{"mesh":0,"name":"Cottage"}],"meshes":[{"name":"Cottage","primitives":[{"attributes":{"POSITION":0,"NORMAL":1,"TEXCOORD_0":2},"indices":3,"material":0},{"attributes":{"POSITION":4,"NORMAL":5,"TEXCOORD_0":6},"indices":7,"material":1},{"attributes":{"POSITION":8,"NORMAL":9,"TEXCOORD_0":10},"indices":11,"material":2},{"attributes":{"POSITION":12,"NORMAL":13,"TEXCOORD_0":14},"indices":15,"material":3},{"attributes":{"POSITION":16,"NORMAL":17,"TEXCOORD_0":18},"indices":19,"material":4}]}],"materials":[{"name":"MI_Plaster","doubleSided":true,"pbrMetallicRoughness":{"metallicFactor":0,"roughnessFactor":0.85,"baseColorTexture":{"index":0}},"normalTexture":{"index":1}},{"name":"MI_RoundTiles","doubleSided":true,"pbrMetallicRoughness":{"metallicFactor":0,"roughnessFactor":0.85,"baseColorTexture":{"index":2}},"normalTexture":{"index":3}},{"name":"MI_UnevenBrick","doubleSided":true,"pbrMetallicRoughness":{"metallicFactor":0,"roughnessFactor":0.85,"baseColorTexture":{"index":4}},"normalTexture":{"index":5}},{"name":"MI_WindowGlass","doubleSided":true,"pbrMetallicRoughness":{"metallicFactor":0,"roughnessFactor":0.85,"baseColorFactor":[0.62,0.74,0.86,1]}},{"name":"MI_WoodTrim","doubleSided":true,"pbrMetallicRoughness":{"metallicFactor":0,"roughnessFactor":0.85,"baseColorTexture":{"index":6}},"normalTexture":{"index":7}}],"textures":[{"source":0},{"source":1},{"source":2},{"source":3},{"source":4},{"source":5},{"source":6},{"source":7}],"images":[{"uri":"tex/Plaster_C.jpg"},{"uri":"tex/Plaster_N.jpg"},{"uri":"tex/RoundTiles_C.jpg"},{"uri":"tex/RoundTiles_N.jpg"},{"uri":"tex/UnevenBrick_C.jpg"},{"uri":"tex/UnevenBrick_N.jpg"},{"uri":"tex/WoodTrim_C.jpg"},{"uri":"tex/WoodTrim_N.jpg"}],"accessors":[{"bufferView":0,"componentType":5126,"count":199,"type":"VEC3","min":[-2.188183546066284,0.0,-2.0000000000094644],"max":[2.188183546066284,5.936702728271484,2.0000000000094644]},{"bufferView":1,"componentType":5126,"count":199,"type":"VEC3"},{"bufferView":2,"componentType":5126,"count":199,"type":"VEC2"},{"bufferView":3,"componentType":5123,"count":573,"type":"SCALAR"},{"bufferView":4,"componentType":5126,"count":1204,"type":"VEC3","min":[-2.756538152694702,2.6121666431427,-2.7018470764160156],"max":[2.756538152694702,6.7336742877960205,2.8215668201446533]},{"bufferView":5,"componentType":5126,"count":1204,"type":"VEC3"},{"bufferView":6,"componentType":5126,"count":1204,"type":"VEC2"},{"bufferView":7,"componentType":5123,"count":3828,"type":"SCALAR"},{"bufferView":8,"componentType":5126,"count":333,"type":"VEC3","min":[-2.0000001311341578,0.0,-2.0000001311341578],"max":[2.0000001311341578,6.2,2.0000001311341578]},{"bufferView":9,"componentType":5126,"count":333,"type":"VEC3"},{"bufferView":10,"componentType":5126,"count":333,"type":"VEC2"},{"bufferView":11,"componentType":5123,"count":993,"type":"SCALAR"},{"bufferView":12,"componentType":5126,"count":428,"type":"VEC3","min":[-2.003888300154358,1.0647618770599365,-2.003888300154358],"max":[2.003888300154358,2.6192541122436523,2.03124588355422]},{"bufferView":13,"componentType":5126,"count":428,"type":"VEC3"},{"bufferView":14,"componentType":5126,"count":428,"type":"VEC2"},{"bufferView":15,"componentType":5123,"count":984,"type":"SCALAR"},{"bufferView":16,"componentType":5126,"count":5872,"type":"VEC3","min":[-2.5676212310791016,-1.5052728485898115e-07,-2.7941397428512573],"max":[2.5676212310791016,6.200705051422119,2.7941397428512573]},{"bufferView":17,"componentType":5126,"count":5872,"type":"VEC3"},{"bufferView":18,"componentType":5126,"count":5872,"type":"VEC2"},{"bufferView":19,"componentType":5123,"count":11250,"type":"SCALAR"}],"bufferViews":[{"buffer":0,"byteOffset":0,"byteLength":2388,"target":34962},{"buffer":0,"byteOffset":2388,"byteLength":2388,"target":34962},{"buffer":0,"byteOffset":4776,"byteLength":1592,"target":34962},{"buffer":0,"byteOffset":6368,"byteLength":1146,"target":34963},{"buffer":0,"byteOffset":7516,"byteLength":14448,"target":34962},{"buffer":0,"byteOffset":21964,"byteLength":14448,"target":34962},{"buffer":0,"byteOffset":36412,"byteLength":9632,"target":34962},{"buffer":0,"byteOffset":46044,"byteLength":7656,"target":34963},{"buffer":0,"byteOffset":53700,"byteLength":3996,"target":34962},{"buffer":0,"byteOffset":57696,"byteLength":3996,"target":34962},{"buffer":0,"byteOffset":61692,"byteLength":2664,"target":34962},{"buffer":0,"byteOffset":64356,"byteLength":1986,"target":34963},{"buffer":0,"byteOffset":66344,"byteLength":5136,"target":34962},{"buffer":0,"byteOffset":71480,"byteLength":5136,"target":34962},{"buffer":0,"byteOffset":76616,"byteLength":3424,"target":34962},{"buffer":0,"byteOffset":80040,"byteLength":1968,"target":34963},{"buffer":0,"byteOffset":82008,"byteLength":70464,"target":34962},{"buffer":0,"byteOffset":152472,"byteLength":70464,"target":34962},{"buffer":0,"byteOffset":222936,"byteLength":46976,"target":34962},{"buffer":0,"byteOffset":269912,"byteLength":22500,"target":34963}],"buffers":[{"uri":"Cottage.bin","byteLength":292412}]}