{"asset":{"version":"2.0","generator":"cherry vil.py"},"scene":0,"scenes":[{"nodes":[0]}],"nodes":[{"mesh":0,"name":"House2"}],"meshes":[{"name":"House2","primitives":[{"attributes":{"POSITION":0,"NORMAL":1,"TEXCOORD_0":2},"indices":3,"material":0},{"attributes":{"POSITION":4,"NORMAL":5,"TEXCOORD_0":6},"indices":7,"material":1},{"attributes":{"POSITION":8,"NORMAL":9,"TEXCOORD_0":10},"indices":11,"material":2},{"attributes":{"POSITION":12,"NORMAL":13,"TEXCOORD_0":14},"indices":15,"material":3},{"attributes":{"POSITION":16,"NORMAL":17,"TEXCOORD_0":18},"indices":19,"material":4},{"attributes":{"POSITION":20,"NORMAL":21,"TEXCOORD_0":22},"indices":23,"material":5},{"attributes":{"POSITION":24,"NORMAL":25,"TEXCOORD_0":26},"indices":27,"material":6}]}],"materials":[{"name":"MI_Brick","doubleSided":true,"pbrMetallicRoughness":{"metallicFactor":0,"roughnessFactor":0.85,"baseColorTexture":{"index":0}},"normalTexture":{"index":1}},{"name":"MI_Plaster","doubleSided":true,"pbrMetallicRoughness":{"metallicFactor":0,"roughnessFactor":0.85,"baseColorTexture":{"index":2}},"normalTexture":{"index":3}},{"name":"MI_RockTrim","doubleSided":true,"pbrMetallicRoughness":{"metallicFactor":0,"roughnessFactor":0.85,"baseColorTexture":{"index":4}},"normalTexture":{"index":5}},{"name":"MI_RoundTiles","doubleSided":true,"pbrMetallicRoughness":{"metallicFactor":0,"roughnessFactor":0.85,"baseColorTexture":{"index":6}},"normalTexture":{"index":7}},{"name":"MI_UnevenBrick","doubleSided":true,"pbrMetallicRoughness":{"metallicFactor":0,"roughnessFactor":0.85,"baseColorTexture":{"index":8}},"normalTexture":{"index":9}},{"name":"MI_WindowGlass","doubleSided":true,"pbrMetallicRoughness":{"metallicFactor":0,"roughnessFactor":0.85,"baseColorFactor":[0.62,0.74,0.86,1]}},{"name":"MI_WoodTrim","doubleSided":true,"pbrMetallicRoughness":{"metallicFactor":0,"roughnessFactor":0.85,"baseColorTexture":{"index":10}},"normalTexture":{"index":11}}],"textures":[{"source":0},{"source":1},{"source":2},{"source":3},{"source":4},{"source":5},{"source":6},{"source":7},{"source":8},{"source":9},{"source":10},{"source":11}],"images":[{"uri":"tex/Brick_C.jpg"},{"uri":"tex/Brick_N.jpg"},{"uri":"tex/Plaster_C.jpg"},{"uri":"tex/Plaster_N.jpg"},{"uri":"tex/RockTrim_C.jpg"},{"uri":"tex/RockTrim_N.jpg"},{"uri":"tex/RoundTiles_C.jpg"},{"uri":"tex/RoundTiles_N.jpg"},{"uri":"tex/UnevenBrick_C.jpg"},{"uri":"tex/UnevenBrick_N.jpg"},{"uri":"tex/WoodTrim_C.jpg"},{"uri":"tex/WoodTrim_N.jpg"}],"accessors":[{"bufferView":0,"componentType":5126,"count":76,"type":"VEC3","min":[-2.0000000437113883,3.0,-3.0000000437113883],"max":[2.0000000437113883,9.2,3.0000000437113883]},{"bufferView":1,"componentType":5126,"count":76,"type":"VEC3"},{"bufferView":2,"componentType":5126,"count":76,"type":"VEC2"},{"bufferView":3,"componentType":5123,"count":180,"type":"SCALAR"},{"bufferView":4,"componentType":5126,"count":673,"type":"VEC3","min":[-2.188183546066284,0.0,-3.000000131134172],"max":[2.188183546066284,8.936702728271484,3.000000131134172]},{"bufferView":5,"componentType":5126,"count":673,"type":"VEC3"},{"bufferView":6,"componentType":5126,"count":673,"type":"VEC2"},{"bufferView":7,"componentType":5123,"count":1923,"type":"SCALAR"},{"bufferView":8,"componentType":5126,"count":508,"type":"VEC3","min":[0.7483982264995575,9.03985137939453,-1.6313483536243438],"max":[1.6383014738559722,9.377875280380248,-0.7266042351722717]},{"bufferView":9,"componentType":5126,"count":508,"type":"VEC3"},{"bufferView":10,"componentType":5126,"count":508,"type":"VEC2"},{"bufferView":11,"componentType":5123,"count":1830,"type":"SCALAR"},{"bufferView":12,"componentType":5126,"count":1684,"type":"VEC3","min":[-2.756538152694702,5.6121666431427,-3.726191759109497],"max":[2.756538152694702,9.717868328094482,3.757296562194824]},{"bufferView":13,"componentType":5126,"count":1684,"type":"VEC3"},{"bufferView":14,"componentType":5126,"count":1684,"type":"VEC2"},{"bufferView":15,"componentType":5123,"count":5400,"type":"SCALAR"},{"bufferView":16,"componentType":5126,"count":388,"type":"VEC3","min":[-2.0000001311341578,0.0,-3.0000001311341578],"max":[2.0000001311341578,3.0,3.0000001311341578]},{"bufferView":17,"componentType":5126,"count":388,"type":"VEC3"},{"bufferView":18,"componentType":5126,"count":388,"type":"VEC2"},{"bufferView":19,"componentType":5123,"count":1239,"type":"SCALAR"},{"bufferView":20,"componentType":5126,"count":1472,"type":"VEC3","min":[-2.0038882344961166,1.0647618770599365,-3.003888300154358],"max":[2.0038882344961166,5.619254112243652,3.03124588355422]},{"bufferView":21,"componentType":5126,"count":1472,"type":"VEC3"},{"bufferView":22,"componentType":5126,"count":1472,"type":"VEC2"},{"bufferView":23,"componentType":5123,"count":3582,"type":"SCALAR"},{"bufferView":24,"componentType":5126,"count":12568,"type":"VEC3","min":[-2.5676212310791016,-1.5052728485898115e-07,-3.7941397428512573],"max":[2.5676212310791016,9.20070505142212,3.7941397428512573]},{"bufferView":25,"componentType":5126,"count":12568,"type":"VEC3"},{"bufferView":26,"componentType":5126,"count":12568,"type":"VEC2"},{"bufferView":27,"componentType":5123,"count":24498,"type":"SCALAR"}],"bufferViews":[{"buffer":0,"byteOffset":0,"byteLength":912,"target":34962},{"buffer":0,"byteOffset":912,"byteLength":912,"target":34962},{"buffer":0,"byteOffset":1824,"byteLength":608,"target":34962},{"buffer":0,"byteOffset":2432,"byteLength":360,"target":34963},{"buffer":0,"byteOffset":2792,"byteLength":8076,"target":34962},{"buffer":0,"byteOffset":10868,"byteLength":8076,"target":34962},{"buffer":0,"byteOffset":18944,"byteLength":5384,"target":34962},{"buffer":0,"byteOffset":24328,"byteLength":3846,"target":34963},{"buffer":0,"byteOffset":28176,"byteLength":6096,"target":34962},{"buffer":0,"byteOffset":34272,"byteLength":6096,"target":34962},{"buffer":0,"byteOffset":40368,"byteLength":4064,"target":34962},{"buffer":0,"byteOffset":44432,"byteLength":3660,"target":34963},{"buffer":0,"byteOffset":48092,"byteLength":20208,"target":34962},{"buffer":0,"byteOffset":68300,"byteLength":20208,"target":34962},{"buffer":0,"byteOffset":88508,"byteLength":13472,"target":34962},{"buffer":0,"byteOffset":101980,"byteLength":10800,"target":34963},{"buffer":0,"byteOffset":112780,"byteLength":4656,"target":34962},{"buffer":0,"byteOffset":117436,"byteLength":4656,"target":34962},{"buffer":0,"byteOffset":122092,"byteLength":3104,"target":34962},{"buffer":0,"byteOffset":125196,"byteLength":2478,"target":34963},{"buffer":0,"byteOffset":127676,"byteLength":17664,"target":34962},{"buffer":0,"byteOffset":145340,"byteLength":17664,"target":34962},{"buffer":0,"byteOffset":163004,"byteLength":11776,"target":34962},{"buffer":0,"byteOffset":174780,"byteLength":7164,"target":34963},{"buffer":0,"byteOffset":181944,"byteLength":150816,"target":34962},{"buffer":0,"byteOffset":332760,"byteLength":150816,"target":34962},{"buffer":0,"byteOffset":483576,"byteLength":100544,"target":34962},{"buffer":0,"byteOffset":584120,"byteLength":48996,"target":34963}],"buffers":[{"uri":"House2.bin","byteLength":633116}]}