{"asset":{"version":"2.0","generator":"cherry vil.py"},"scene":0,"scenes":[{"nodes":[0]}],"nodes":[{"mesh":0,"name":"Manor"}],"meshes":[{"name":"Manor","primitives":[{"attributes":{"POSITION":0,"NORMAL":1,"TEXCOORD_0":2},"indices":3,"material":0},{"attributes":{"POSITION":4,"NORMAL":5,"TEXCOORD_0":6},"indices":7,"material":1},{"attributes":{"POSITION":8,"NORMAL":9,"TEXCOORD_0":10},"indices":11,"material":2},{"attributes":{"POSITION":12,"NORMAL":13,"TEXCOORD_0":14},"indices":15,"material":3},{"attributes":{"POSITION":16,"NORMAL":17,"TEXCOORD_0":18},"indices":19,"material":4},{"attributes":{"POSITION":20,"NORMAL":21,"TEXCOORD_0":22},"indices":23,"material":5},{"attributes":{"POSITION":24,"NORMAL":25,"TEXCOORD_0":26},"indices":27,"material":6}]}],"materials":[{"name":"MI_Brick","doubleSided":true,"pbrMetallicRoughness":{"metallicFactor":0,"roughnessFactor":0.85,"baseColorTexture":{"index":0}},"normalTexture":{"index":1}},{"name":"MI_Plaster","doubleSided":true,"pbrMetallicRoughness":{"metallicFactor":0,"roughnessFactor":0.85,"baseColorTexture":{"index":2}},"normalTexture":{"index":3}},{"name":"MI_RockTrim","doubleSided":true,"pbrMetallicRoughness":{"metallicFactor":0,"roughnessFactor":0.85,"baseColorTexture":{"index":4}},"normalTexture":{"index":5}},{"name":"MI_RoundTiles","doubleSided":true,"pbrMetallicRoughness":{"metallicFactor":0,"roughnessFactor":0.85,"baseColorTexture":{"index":6}},"normalTexture":{"index":7}},{"name":"MI_UnevenBrick","doubleSided":true,"pbrMetallicRoughness":{"metallicFactor":0,"roughnessFactor":0.85,"baseColorTexture":{"index":8}},"normalTexture":{"index":9}},{"name":"MI_WindowGlass","doubleSided":true,"pbrMetallicRoughness":{"metallicFactor":0,"roughnessFactor":0.85,"baseColorFactor":[0.62,0.74,0.86,1]}},{"name":"MI_WoodTrim","doubleSided":true,"pbrMetallicRoughness":{"metallicFactor":0,"roughnessFactor":0.85,"baseColorTexture":{"index":10}},"normalTexture":{"index":11}}],"textures":[{"source":0},{"source":1},{"source":2},{"source":3},{"source":4},{"source":5},{"source":6},{"source":7},{"source":8},{"source":9},{"source":10},{"source":11}],"images":[{"uri":"tex/Brick_C.jpg"},{"uri":"tex/Brick_N.jpg"},{"uri":"tex/Plaster_C.jpg"},{"uri":"tex/Plaster_N.jpg"},{"uri":"tex/RockTrim_C.jpg"},{"uri":"tex/RockTrim_N.jpg"},{"uri":"tex/RoundTiles_C.jpg"},{"uri":"tex/RoundTiles_N.jpg"},{"uri":"tex/UnevenBrick_C.jpg"},{"uri":"tex/UnevenBrick_N.jpg"},{"uri":"tex/WoodTrim_C.jpg"},{"uri":"tex/WoodTrim_N.jpg"}],"accessors":[{"bufferView":0,"componentType":5126,"count":152,"type":"VEC3","min":[-3.0000000437113883,0.0,-3.0000000437113883],"max":[3.0000000437113883,9.4,3.0000000437113883]},{"bufferView":1,"componentType":5126,"count":152,"type":"VEC3"},{"bufferView":2,"componentType":5126,"count":152,"type":"VEC2"},{"bufferView":3,"componentType":5123,"count":312,"type":"SCALAR"},{"bufferView":4,"componentType":5126,"count":1073,"type":"VEC3","min":[-3.1225504875183105,0.0,-3.000000131134172],"max":[3.1225504875183105,10.377229690551758,3.000000131134172]},{"bufferView":5,"componentType":5126,"count":1073,"type":"VEC3"},{"bufferView":6,"componentType":5126,"count":1073,"type":"VEC2"},{"bufferView":7,"componentType":5123,"count":3072,"type":"SCALAR"},{"bufferView":8,"componentType":5126,"count":528,"type":"VEC3","min":[-2.2516017735004423,-1.1278182812197925e-16,-1.9313483536243439],"max":[1.0,9.57787528038025,3.0000000437113954]},{"bufferView":9,"componentType":5126,"count":528,"type":"VEC3"},{"bufferView":10,"componentType":5126,"count":528,"type":"VEC2"},{"bufferView":11,"componentType":5123,"count":1866,"type":"SCALAR"},{"bufferView":12,"componentType":5126,"count":1960,"type":"VEC3","min":[-4.124891757965088,5.361554503440857,-3.9382028579711914],"max":[4.124891757965088,10.890044689178467,4.093986511230469]},{"bufferView":13,"componentType":5126,"count":1960,"type":"VEC3"},{"bufferView":14,"componentType":5126,"count":1960,"type":"VEC2"},{"bufferView":15,"componentType":5123,"count":6684,"type":"SCALAR"},{"bufferView":16,"componentType":5126,"count":122,"type":"VEC3","min":[1.2999999403953553,6.400000058207661,0.7059914588928222],"max":[2.2457784593105314,9.4,1.6940085709095]},{"bufferView":17,"componentType":5126,"count":122,"type":"VEC3"},{"bufferView":18,"componentType":5126,"count":122,"type":"VEC2"},{"bufferView":19,"componentType":5123,"count":390,"type":"SCALAR"},{"bufferView":20,"componentType":5126,"count":1428,"type":"VEC3","min":[-3.003888300154358,1.0647618770599365,-3.003888300154358],"max":[3.003888300154358,5.619254112243652,3.003888300154358]},{"bufferView":21,"componentType":5126,"count":1428,"type":"VEC3"},{"bufferView":22,"componentType":5126,"count":1428,"type":"VEC2"},{"bufferView":23,"componentType":5123,"count":3324,"type":"SCALAR"},{"bufferView":24,"componentType":5126,"count":16422,"type":"VEC3","min":[-3.958951234817505,-1.6249023815362307e-07,-3.794140338897705],"max":[3.958951234817505,10.383981704711914,3.7993175983428955]},{"bufferView":25,"componentType":5126,"count":16422,"type":"VEC3"},{"bufferView":26,"componentType":5126,"count":16422,"type":"VEC2"},{"bufferView":27,"componentType":5123,"count":31290,"type":"SCALAR"}],"bufferViews":[{"buffer":0,"byteOffset":0,"byteLength":1824,"target":34962},{"buffer":0,"byteOffset":1824,"byteLength":1824,"target":34962},{"buffer":0,"byteOffset":3648,"byteLength":1216,"target":34962},{"buffer":0,"byteOffset":4864,"byteLength":624,"target":34963},{"buffer":0,"byteOffset":5488,"byteLength":12876,"target":34962},{"buffer":0,"byteOffset":18364,"byteLength":12876,"target":34962},{"buffer":0,"byteOffset":31240,"byteLength":8584,"target":34962},{"buffer":0,"byteOffset":39824,"byteLength":6144,"target":34963},{"buffer":0,"byteOffset":45968,"byteLength":6336,"target":34962},{"buffer":0,"byteOffset":52304,"byteLength":6336,"target":34962},{"buffer":0,"byteOffset":58640,"byteLength":4224,"target":34962},{"buffer":0,"byteOffset":62864,"byteLength":3732,"target":34963},{"buffer":0,"byteOffset":66596,"byteLength":23520,"target":34962},{"buffer":0,"byteOffset":90116,"byteLength":23520,"target":34962},{"buffer":0,"byteOffset":113636,"byteLength":15680,"target":34962},{"buffer":0,"byteOffset":129316,"byteLength":13368,"target":34963},{"buffer":0,"byteOffset":142684,"byteLength":1464,"target":34962},{"buffer":0,"byteOffset":144148,"byteLength":1464,"target":34962},{"buffer":0,"byteOffset":145612,"byteLength":976,"target":34962},{"buffer":0,"byteOffset":146588,"byteLength":780,"target":34963},{"buffer":0,"byteOffset":147368,"byteLength":17136,"target":34962},{"buffer":0,"byteOffset":164504,"byteLength":17136,"target":34962},{"buffer":0,"byteOffset":181640,"byteLength":11424,"target":34962},{"buffer":0,"byteOffset":193064,"byteLength":6648,"target":34963},{"buffer":0,"byteOffset":199712,"byteLength":197064,"target":34962},{"buffer":0,"byteOffset":396776,"byteLength":197064,"target":34962},{"buffer":0,"byteOffset":593840,"byteLength":131376,"target":34962},{"buffer":0,"byteOffset":725216,"byteLength":62580,"target":34963}],"buffers":[{"uri":"Manor.bin","byteLength":787796}]}