{"asset":{"version":"2.0","generator":"cherry vil.py"},"scene":0,"scenes":[{"nodes":[0]}],"nodes":[{"mesh":0,"name":"Stall"}],"meshes":[{"name":"Stall","primitives":[{"attributes":{"POSITION":0,"NORMAL":1,"TEXCOORD_0":2},"indices":3,"material":0},{"attributes":{"POSITION":4,"NORMAL":5,"TEXCOORD_0":6},"indices":7,"material":1}]}],"materials":[{"name":"MI_RoundTiles","doubleSided":true,"pbrMetallicRoughness":{"metallicFactor":0,"roughnessFactor":0.85,"baseColorTexture":{"index":0}},"normalTexture":{"index":1}},{"name":"MI_WoodTrim","doubleSided":true,"pbrMetallicRoughness":{"metallicFactor":0,"roughnessFactor":0.85,"baseColorTexture":{"index":2}},"normalTexture":{"index":3}}],"textures":[{"source":0},{"source":1},{"source":2},{"source":3}],"images":[{"uri":"tex/RoundTiles_C.jpg"},{"uri":"tex/RoundTiles_N.jpg"},{"uri":"tex/WoodTrim_C.jpg"},{"uri":"tex/WoodTrim_N.jpg"}],"accessors":[{"bufferView":0,"componentType":5126,"count":516,"type":"VEC3","min":[-2.1736536026000977,2.9907646656036375,-0.9689145088195801],"max":[2.173652172088623,6.117312717437744,0.9832742214202881]},{"bufferView":1,"componentType":5126,"count":516,"type":"VEC3"},{"bufferView":2,"componentType":5126,"count":516,"type":"VEC2"},{"bufferView":3,"componentType":5123,"count":1212,"type":"SCALAR"},{"bufferView":4,"componentType":5126,"count":2864,"type":"VEC3","min":[-2.244420860767186,-0.02825251966714859,-1.2944207691330312],"max":[2.1425968590359687,5.703069019317627,1.1198200732469559]},{"bufferView":5,"componentType":5126,"count":2864,"type":"VEC3"},{"bufferView":6,"componentType":5126,"count":2864,"type":"VEC2"},{"bufferView":7,"componentType":5123,"count":4386,"type":"SCALAR"}],"bufferViews":[{"buffer":0,"byteOffset":0,"byteLength":6192,"target":34962},{"buffer":0,"byteOffset":6192,"byteLength":6192,"target":34962},{"buffer":0,"byteOffset":12384,"byteLength":4128,"target":34962},{"buffer":0,"byteOffset":16512,"byteLength":2424,"target":34963},{"buffer":0,"byteOffset":18936,"byteLength":34368,"target":34962},{"buffer":0,"byteOffset":53304,"byteLength":34368,"target":34962},{"buffer":0,"byteOffset":87672,"byteLength":22912,"target":34962},{"buffer":0,"byteOffset":110584,"byteLength":8772,"target":34963}],"buffers":[{"uri":"Stall.bin","byteLength":119356}]}