{"asset":{"version":"2.0","generator":"cherry vil.py"},"scene":0,"scenes":[{"nodes":[0]}],"nodes":[{"mesh":0,"name":"Wagon"}],"meshes":[{"name":"Wagon","primitives":[{"attributes":{"POSITION":0,"NORMAL":1,"TEXCOORD_0":2},"indices":3,"material":0}]}],"materials":[{"name":"MI_WoodTrim","doubleSided":true,"pbrMetallicRoughness":{"metallicFactor":0,"roughnessFactor":0.85,"baseColorTexture":{"index":0}},"normalTexture":{"index":1}}],"textures":[{"source":0},{"source":1}],"images":[{"uri":"tex/WoodTrim_C.jpg"},{"uri":"tex/WoodTrim_N.jpg"}],"accessors":[{"bufferView":0,"componentType":5126,"count":2791,"type":"VEC3","min":[-0.9793591499328613,0.00312984362244606,-2.2635560064514877],"max":[1.5635559180241825,1.5323269367218018,1.9735843896865846]},{"bufferView":1,"componentType":5126,"count":2791,"type":"VEC3"},{"bufferView":2,"componentType":5126,"count":2791,"type":"VEC2"},{"bufferView":3,"componentType":5123,"count":5706,"type":"SCALAR"}],"bufferViews":[{"buffer":0,"byteOffset":0,"byteLength":33492,"target":34962},{"buffer":0,"byteOffset":33492,"byteLength":33492,"target":34962},{"buffer":0,"byteOffset":66984,"byteLength":22328,"target":34962},{"buffer":0,"byteOffset":89312,"byteLength":11412,"target":34963}],"buffers":[{"uri":"Wagon.bin","byteLength":100724}]}