{"asset":{"version":"2.0","generator":"cherry-adventure hat extractor"},"scene":0,"scenes":[{"nodes":[0]}],"nodes":[{"mesh":0,"name":"hat_witch"}],"meshes":[{"name":"hat_witch","primitives":[{"attributes":{"POSITION":0,"NORMAL":1,"TEXCOORD_0":2},"indices":3,"material":0}]}],"materials":[{"name":"skeleton","doubleSided":false,"pbrMetallicRoughness":{"baseColorTexture":{"index":0},"metallicFactor":0,"roughnessFactor":0.5}}],"accessors":[{"bufferView":0,"componentType":5126,"count":340,"type":"VEC3","min":[-0.8949106633663177,0.0,-0.8676522076129913],"max":[0.8949106633663177,1.2683632809899237,0.8676522076129913]},{"bufferView":1,"componentType":5126,"count":340,"type":"VEC3"},{"bufferView":2,"componentType":5126,"count":340,"type":"VEC2"},{"bufferView":3,"componentType":5123,"count":924,"type":"SCALAR"}],"bufferViews":[{"buffer":0,"byteOffset":0,"byteLength":4080,"target":34962},{"buffer":0,"byteOffset":4080,"byteLength":4080,"target":34962},{"buffer":0,"byteOffset":8160,"byteLength":2720,"target":34962},{"buffer":0,"byteOffset":10880,"byteLength":1848,"target":34963}],"buffers":[{"byteLength":12728,"uri":"hat_witch.bin"}],"images":[{"uri":"skeleton_texture.png"}],"samplers":[{"magFilter":9729,"minFilter":9987}],"textures":[{"source":0,"sampler":0}]}