{"asset":{"version":"2.0","generator":"cherry-adventure hat extractor"},"scene":0,"scenes":[{"nodes":[0]}],"nodes":[{"mesh":0,"name":"hat_barbarian"}],"meshes":[{"name":"hat_barbarian","primitives":[{"attributes":{"POSITION":0,"NORMAL":1,"TEXCOORD_0":2},"indices":3,"material":0},{"attributes":{"POSITION":4,"NORMAL":5,"TEXCOORD_0":6},"indices":7,"material":1},{"attributes":{"POSITION":8,"NORMAL":9,"TEXCOORD_0":10},"indices":11,"material":2}]}],"materials":[{"name":"Black","doubleSided":false,"pbrMetallicRoughness":{"baseColorFactor":[0.019794002175331116,0.03207586705684662,0.037408243864774704,1],"metallicFactor":0,"roughnessFactor":0.5}},{"name":"WoodDark","doubleSided":true,"pbrMetallicRoughness":{"baseColorFactor":[0.15377813577651978,0.11656659096479416,0.10591226816177368,1],"metallicFactor":0,"roughnessFactor":0.4000000059604645}},{"name":"White","doubleSided":false,"pbrMetallicRoughness":{"baseColorFactor":[0.799102783203125,0.799102783203125,0.799102783203125,1],"metallicFactor":0,"roughnessFactor":0.5}}],"accessors":[{"bufferView":0,"componentType":5126,"count":178,"type":"VEC3","min":[-0.39143937826156616,0.409332275390625,0.29783034324645996],"max":[0.393943727016449,0.5979555249214172,0.6881483793258667]},{"bufferView":1,"componentType":5126,"count":178,"type":"VEC3"},{"bufferView":2,"componentType":5126,"count":178,"type":"VEC2"},{"bufferView":3,"componentType":5123,"count":573,"type":"SCALAR"},{"bufferView":4,"componentType":5126,"count":600,"type":"VEC3","min":[-0.6086711287498474,0.0,-0.6881483793258667],"max":[0.6086711287498474,1.0454763770103455,0.6535017490386963]},{"bufferView":5,"componentType":5126,"count":600,"type":"VEC3"},{"bufferView":6,"componentType":5126,"count":600,"type":"VEC2"},{"bufferView":7,"componentType":5123,"count":2412,"type":"SCALAR"},{"bufferView":8,"componentType":5126,"count":76,"type":"VEC3","min":[-0.24143391847610474,0.2506263256072998,0.4815412759780884],"max":[0.2487071454524994,0.4076730012893677,0.5833132266998291]},{"bufferView":9,"componentType":5126,"count":76,"type":"VEC3"},{"bufferView":10,"componentType":5126,"count":76,"type":"VEC2"},{"bufferView":11,"componentType":5123,"count":204,"type":"SCALAR"}],"bufferViews":[{"buffer":0,"byteOffset":0,"byteLength":2136,"target":34962},{"buffer":0,"byteOffset":2136,"byteLength":2136,"target":34962},{"buffer":0,"byteOffset":4272,"byteLength":1424,"target":34962},{"buffer":0,"byteOffset":5696,"byteLength":1146,"target":34963},{"buffer":0,"byteOffset":6844,"byteLength":7200,"target":34962},{"buffer":0,"byteOffset":14044,"byteLength":7200,"target":34962},{"buffer":0,"byteOffset":21244,"byteLength":4800,"target":34962},{"buffer":0,"byteOffset":26044,"byteLength":4824,"target":34963},{"buffer":0,"byteOffset":30868,"byteLength":912,"target":34962},{"buffer":0,"byteOffset":31780,"byteLength":912,"target":34962},{"buffer":0,"byteOffset":32692,"byteLength":608,"target":34962},{"buffer":0,"byteOffset":33300,"byteLength":408,"target":34963}],"buffers":[{"byteLength":33708,"uri":"hat_barbarian.bin"}]}