{"asset":{"version":"2.0","generator":"cherry-adventure hat extractor"},"scene":0,"scenes":[{"nodes":[0]}],"nodes":[{"mesh":0,"name":"hat_mage"}],"meshes":[{"name":"hat_mage","primitives":[{"attributes":{"POSITION":0,"NORMAL":1,"TEXCOORD_0":2},"indices":3,"material":0},{"attributes":{"POSITION":4,"NORMAL":5,"TEXCOORD_0":6},"indices":7,"material":1},{"attributes":{"POSITION":8,"NORMAL":9,"TEXCOORD_0":10},"indices":11,"material":2}]}],"materials":[{"name":"PurpleDark","doubleSided":true,"pbrMetallicRoughness":{"baseColorFactor":[0.06480327248573303,0.05780543386936188,0.16513223946094513,1],"metallicFactor":0,"roughnessFactor":0.4000000059604645}},{"name":"BrownDark","doubleSided":false,"pbrMetallicRoughness":{"baseColorFactor":[0.32694560289382935,0.10152623057365417,0.05927089974284172,1],"metallicFactor":0,"roughnessFactor":0.4000000059604645}},{"name":"Metal","doubleSided":false,"pbrMetallicRoughness":{"baseColorFactor":[0.40126433968544006,0.47849249839782715,0.5173344612121582,1],"metallicFactor":0.20000000298023224,"roughnessFactor":0.30000001192092896}}],"accessors":[{"bufferView":0,"componentType":5126,"count":274,"type":"VEC3","min":[-1.0495287775993347,0.0,-1.023450255393982],"max":[1.0495287775993347,1.4244793355464935,1.023450255393982]},{"bufferView":1,"componentType":5126,"count":274,"type":"VEC3"},{"bufferView":2,"componentType":5126,"count":274,"type":"VEC2"},{"bufferView":3,"componentType":5123,"count":1290,"type":"SCALAR"},{"bufferView":4,"componentType":5126,"count":50,"type":"VEC3","min":[-0.5175439715385437,0.4377616196870804,-0.5394802093505859],"max":[0.517544150352478,0.8313475847244263,0.4597457945346832]},{"bufferView":5,"componentType":5126,"count":50,"type":"VEC3"},{"bufferView":6,"componentType":5126,"count":50,"type":"VEC2"},{"bufferView":7,"componentType":5123,"count":144,"type":"SCALAR"},{"bufferView":8,"componentType":5126,"count":104,"type":"VEC3","min":[-0.18158785998821259,0.6566677838563919,0.26205727458000183],"max":[0.18158774077892303,0.8737629354000092,0.4959458112716675]},{"bufferView":9,"componentType":5126,"count":104,"type":"VEC3"},{"bufferView":10,"componentType":5126,"count":104,"type":"VEC2"},{"bufferView":11,"componentType":5123,"count":456,"type":"SCALAR"}],"bufferViews":[{"buffer":0,"byteOffset":0,"byteLength":3288,"target":34962},{"buffer":0,"byteOffset":3288,"byteLength":3288,"target":34962},{"buffer":0,"byteOffset":6576,"byteLength":2192,"target":34962},{"buffer":0,"byteOffset":8768,"byteLength":2580,"target":34963},{"buffer":0,"byteOffset":11348,"byteLength":600,"target":34962},{"buffer":0,"byteOffset":11948,"byteLength":600,"target":34962},{"buffer":0,"byteOffset":12548,"byteLength":400,"target":34962},{"buffer":0,"byteOffset":12948,"byteLength":288,"target":34963},{"buffer":0,"byteOffset":13236,"byteLength":1248,"target":34962},{"buffer":0,"byteOffset":14484,"byteLength":1248,"target":34962},{"buffer":0,"byteOffset":15732,"byteLength":832,"target":34962},{"buffer":0,"byteOffset":16564,"byteLength":912,"target":34963}],"buffers":[{"byteLength":17476,"uri":"hat_mage.bin"}]}