{"asset":{"version":"2.0","generator":"cherry-adventure hat extractor"},"scene":0,"scenes":[{"nodes":[0]}],"nodes":[{"mesh":0,"name":"helm_knight"}],"meshes":[{"name":"helm_knight","primitives":[{"attributes":{"POSITION":0,"NORMAL":1,"TEXCOORD_0":2},"indices":3,"material":0},{"attributes":{"POSITION":4,"NORMAL":5,"TEXCOORD_0":6},"indices":7,"material":1},{"attributes":{"POSITION":8,"NORMAL":9,"TEXCOORD_0":10},"indices":11,"material":0},{"attributes":{"POSITION":12,"NORMAL":13,"TEXCOORD_0":14},"indices":15,"material":1}]}],"materials":[{"name":"Stone","doubleSided":true,"pbrMetallicRoughness":{"baseColorFactor":[0.1923278123140335,0.22819341719150543,0.24619518220424652,1],"metallicFactor":0,"roughnessFactor":0.30000001192092896}},{"name":"Metal","doubleSided":false,"pbrMetallicRoughness":{"baseColorFactor":[0.40126433968544006,0.47849249839782715,0.5173344612121582,1],"metallicFactor":0.20000000298023224,"roughnessFactor":0.30000001192092896}}],"accessors":[{"bufferView":0,"componentType":5126,"count":301,"type":"VEC3","min":[-0.6053614914417267,0.16993480920791626,-0.6659966241568327],"max":[0.6053614914417267,1.4236139059066772,0.5711341369897127]},{"bufferView":1,"componentType":5126,"count":301,"type":"VEC3"},{"bufferView":2,"componentType":5126,"count":301,"type":"VEC2"},{"bufferView":3,"componentType":5123,"count":1062,"type":"SCALAR"},{"bufferView":4,"componentType":5126,"count":18,"type":"VEC3","min":[-0.047897059470415115,0.9435621500015259,-0.6273799072951078],"max":[0.04789700731635094,1.4236139059066772,0.5827603209763765]},{"bufferView":5,"componentType":5126,"count":18,"type":"VEC3"},{"bufferView":6,"componentType":5126,"count":18,"type":"VEC2"},{"bufferView":7,"componentType":5123,"count":42,"type":"SCALAR"},{"bufferView":8,"componentType":5126,"count":137,"type":"VEC3","min":[-0.5811067521572113,0.026997923851013184,0.031109100207686424],"max":[0.581106573343277,1.12870454788208,0.6659966241568327]},{"bufferView":9,"componentType":5126,"count":137,"type":"VEC3"},{"bufferView":10,"componentType":5126,"count":137,"type":"VEC2"},{"bufferView":11,"componentType":5123,"count":492,"type":"SCALAR"},{"bufferView":12,"componentType":5126,"count":100,"type":"VEC3","min":[-0.5811067521572113,0.0,0.06966160796582699],"max":[0.581106573343277,1.12870454788208,0.6659966241568327]},{"bufferView":13,"componentType":5126,"count":100,"type":"VEC3"},{"bufferView":14,"componentType":5126,"count":100,"type":"VEC2"},{"bufferView":15,"componentType":5123,"count":348,"type":"SCALAR"}],"bufferViews":[{"buffer":0,"byteOffset":0,"byteLength":3612,"target":34962},{"buffer":0,"byteOffset":3612,"byteLength":3612,"target":34962},{"buffer":0,"byteOffset":7224,"byteLength":2408,"target":34962},{"buffer":0,"byteOffset":9632,"byteLength":2124,"target":34963},{"buffer":0,"byteOffset":11756,"byteLength":216,"target":34962},{"buffer":0,"byteOffset":11972,"byteLength":216,"target":34962},{"buffer":0,"byteOffset":12188,"byteLength":144,"target":34962},{"buffer":0,"byteOffset":12332,"byteLength":84,"target":34963},{"buffer":0,"byteOffset":12416,"byteLength":1644,"target":34962},{"buffer":0,"byteOffset":14060,"byteLength":1644,"target":34962},{"buffer":0,"byteOffset":15704,"byteLength":1096,"target":34962},{"buffer":0,"byteOffset":16800,"byteLength":984,"target":34963},{"buffer":0,"byteOffset":17784,"byteLength":1200,"target":34962},{"buffer":0,"byteOffset":18984,"byteLength":1200,"target":34962},{"buffer":0,"byteOffset":20184,"byteLength":800,"target":34962},{"buffer":0,"byteOffset":20984,"byteLength":696,"target":34963}],"buffers":[{"byteLength":21680,"uri":"helm_knight.bin"}]}