{"asset":{"version":"2.0","generator":"cherry-adventure hat extractor"},"scene":0,"scenes":[{"nodes":[0]}],"nodes":[{"mesh":0,"name":"helm_horned"}],"meshes":[{"name":"helm_horned","primitives":[{"attributes":{"POSITION":0,"NORMAL":1,"TEXCOORD_0":2},"indices":3,"material":0}]}],"materials":[{"name":"skeleton","doubleSided":false,"pbrMetallicRoughness":{"baseColorTexture":{"index":0},"metallicFactor":0,"roughnessFactor":0.5}}],"accessors":[{"bufferView":0,"componentType":5126,"count":1069,"type":"VEC3","min":[-0.7592794895172119,0.0,-0.7293854355812073],"max":[0.7592794895172119,1.3369897850161871,0.7293854355812073]},{"bufferView":1,"componentType":5126,"count":1069,"type":"VEC3"},{"bufferView":2,"componentType":5126,"count":1069,"type":"VEC2"},{"bufferView":3,"componentType":5123,"count":2490,"type":"SCALAR"}],"bufferViews":[{"buffer":0,"byteOffset":0,"byteLength":12828,"target":34962},{"buffer":0,"byteOffset":12828,"byteLength":12828,"target":34962},{"buffer":0,"byteOffset":25656,"byteLength":8552,"target":34962},{"buffer":0,"byteOffset":34208,"byteLength":4980,"target":34963}],"buffers":[{"byteLength":39188,"uri":"helm_horned.bin"}],"images":[{"uri":"skeleton_texture.png"}],"samplers":[{"magFilter":9729,"minFilter":9987}],"textures":[{"source":0,"sampler":0}]}