{"asset":{"version":"2.0","generator":"cherry-adventure hat extractor"},"scene":0,"scenes":[{"nodes":[0]}],"nodes":[{"mesh":0,"name":"hood_rogue"}],"meshes":[{"name":"hood_rogue","primitives":[{"attributes":{"POSITION":0,"NORMAL":1,"TEXCOORD_0":2},"indices":3,"material":0}]}],"materials":[{"name":"skeleton","doubleSided":true,"pbrMetallicRoughness":{"baseColorTexture":{"index":0},"metallicFactor":0,"roughnessFactor":0.5}}],"accessors":[{"bufferView":0,"componentType":5126,"count":392,"type":"VEC3","min":[-0.5804964303970337,0.0,-0.5763969421386732],"max":[0.5804964303970337,1.1558091845626057,0.5763969421386732]},{"bufferView":1,"componentType":5126,"count":392,"type":"VEC3"},{"bufferView":2,"componentType":5126,"count":392,"type":"VEC2"},{"bufferView":3,"componentType":5123,"count":1470,"type":"SCALAR"}],"bufferViews":[{"buffer":0,"byteOffset":0,"byteLength":4704,"target":34962},{"buffer":0,"byteOffset":4704,"byteLength":4704,"target":34962},{"buffer":0,"byteOffset":9408,"byteLength":3136,"target":34962},{"buffer":0,"byteOffset":12544,"byteLength":2940,"target":34963}],"buffers":[{"byteLength":15484,"uri":"hood_rogue.bin"}],"images":[{"uri":"skeleton_texture.png"}],"samplers":[{"magFilter":9729,"minFilter":9987}],"textures":[{"source":0,"sampler":0}]}