{"asset":{"version":"2.0","generator":"cherry-adventure hat extractor"},"scene":0,"scenes":[{"nodes":[0]}],"nodes":[{"mesh":0,"name":"mask_rogue"}],"meshes":[{"name":"mask_rogue","primitives":[{"attributes":{"POSITION":0,"NORMAL":1,"TEXCOORD_0":2},"indices":3,"material":0}]}],"materials":[{"name":"rogue","doubleSided":true,"pbrMetallicRoughness":{"baseColorTexture":{"index":0},"metallicFactor":0,"roughnessFactor":0.5}}],"accessors":[{"bufferView":0,"componentType":5126,"count":238,"type":"VEC3","min":[-0.44363926351070404,0.0,-0.4872845560312271],"max":[0.44363926351070404,0.420086145401001,0.4872845560312271]},{"bufferView":1,"componentType":5126,"count":238,"type":"VEC3"},{"bufferView":2,"componentType":5126,"count":238,"type":"VEC2"},{"bufferView":3,"componentType":5123,"count":912,"type":"SCALAR"}],"bufferViews":[{"buffer":0,"byteOffset":0,"byteLength":2856,"target":34962},{"buffer":0,"byteOffset":2856,"byteLength":2856,"target":34962},{"buffer":0,"byteOffset":5712,"byteLength":1904,"target":34962},{"buffer":0,"byteOffset":7616,"byteLength":1824,"target":34963}],"buffers":[{"byteLength":9440,"uri":"mask_rogue.bin"}],"images":[{"uri":"rogue_texture.png"}],"samplers":[{"magFilter":9729,"minFilter":9987}],"textures":[{"source":0,"sampler":0}]}