{"asset":{"version":"2.0","generator":"cherry kitmerge"},"scene":0,"scenes":[{"nodes":[1,3,5,7,11,14,17,19,21,23,27,29,31,33,35,37,39,41,43,45,47,49,51,53,55,57,59,61,63,65,67,69]}],"nodes":[{"name":"building_castle_blue","children":[70]},{"name":"K_castle","children":[0]},{"name":"building_church_red","children":[71]},{"name":"K_church","children":[2]},{"name":"building_tavern_red","children":[72]},{"name":"K_tavern","children":[4]},{"name":"building_blacksmith_blue","children":[73]},{"name":"K_smith","children":[6]},{"name":"building_windmill_top_fan_yellow","translation":[-7.62939453125e-06,0.27165576815605164,0.3321409225463867],"children":[74]},{"children":[8,75],"name":"building_windmill_top_yellow","translation":[0,0.685367226600647,0]},{"children":[9,76],"name":"building_windmill_yellow"},{"name":"K_windmill","children":[10]},{"name":"building_tower_A_top_blue","children":[77]},{"children":[12,78],"name":"building_tower_A_blue"},{"name":"K_towerA","children":[13]},{"name":"building_tower_B_top_red","children":[79]},{"children":[15,80],"name":"building_tower_B_red"},{"name":"K_towerB","children":[16]},{"name":"building_tower_base_blue","children":[81]},{"name":"K_towerBase","children":[18]},{"name":"building_well_blue","children":[82]},{"name":"K_well","children":[20]},{"name":"wall_straight","children":[83]},{"name":"K_wall","children":[22]},{"name":"wall_straight_gate_door_left","translation":[0.45000743865966797,0,0],"children":[84]},{"name":"wall_straight_gate_door_right","translation":[-0.44999217987060547,0,0],"children":[85]},{"children":[24,25,86],"name":"wall_straight_gate"},{"name":"K_gate","children":[26]},{"name":"trees_A_large","children":[87]},{"name":"K_treesA","children":[28]},{"name":"trees_B_large","children":[88]},{"name":"K_treesB","children":[30]},{"name":"trees_A_medium","children":[89]},{"name":"K_treesM","children":[32]},{"name":"tree_single_A","children":[90]},{"name":"K_treeA","children":[34]},{"name":"tree_single_B","children":[91]},{"name":"K_treeB","children":[36]},{"name":"mountain_A_grass_trees","children":[92]},{"name":"K_mtA","children":[38]},{"name":"mountain_B_grass_trees","children":[93]},{"name":"K_mtB","children":[40]},{"name":"mountain_C_grass_trees","children":[94]},{"name":"K_mtC","children":[42]},{"name":"rock_single_E","children":[95]},{"name":"K_rock","children":[44]},{"name":"barrel","children":[96]},{"name":"K_barrel","children":[46]},{"name":"crate_A_big","children":[97]},{"name":"K_crateA","children":[48]},{"name":"crate_long_A","children":[98]},{"name":"K_crateL","children":[50]},{"name":"sack","children":[99]},{"name":"K_sack","children":[52]},{"name":"flag_red","children":[100]},{"name":"K_flagR","children":[54]},{"name":"flag_blue","children":[101]},{"name":"K_flagB","children":[56]},{"name":"weaponrack","children":[102]},{"name":"K_rack","children":[58]},{"name":"wheelbarrow","children":[103]},{"name":"K_barrow","children":[60]},{"name":"bucket_water","children":[104]},{"name":"K_bucket","children":[62]},{"name":"tent","children":[105]},{"name":"K_tent","children":[64]},{"name":"resource_lumber","children":[106]},{"name":"K_lumber","children":[66]},{"name":"target","children":[107]},{"name":"K_target","children":[68]},{"mesh":0,"translation":[-2.9802322387695312e-08,1.98960280418396,0.0],"scale":[1.98960280418396,1.98960280418396,1.98960280418396]},{"mesh":1,"translation":[-2.9802322387695312e-08,0.8225126773120337,0.01750323176383972],"scale":[0.8225180596111841,0.8225180596111841,0.8225180596111841]},{"mesh":2,"translation":[-0.009114831686019897,0.6983219444751967,-0.036158084869384766],"scale":[0.6983250319957506,0.6983250319957506,0.6983250319957506]},{"mesh":3,"translation":[0.013795673847198486,0.48744991421699524,0.06257548928260803],"scale":[0.6438004970550537,0.6438004970550537,0.6438004970550537]},{"mesh":4,"translation":[0.0,-2.9802322387695312e-08,0.05272050201892853],"scale":[0.5008417963981628,0.5008417963981628,0.5008417963981628]},{"mesh":5,"translation":[0.0,0.3468983769416809,6.785988807678223e-05],"scale":[0.3468983769416809,0.3468983769416809,0.3468983769416809]},{"mesh":6,"translation":[0.00498625636100769,0.3426256198858937,0.01803012192249298],"scale":[0.5628849565982819,0.5628849565982819,0.5628849565982819]},{"mesh":7,"translation":[-2.9802322387695312e-08,1.7348293662071228,0.0],"scale":[0.5734661817550659,0.5734661817550659,0.5734661817550659]},{"mesh":8,"translation":[0.0,0.75,0.024437010288238525],"scale":[0.75,0.75,0.75]},{"mesh":9,"translation":[-2.9802322387695312e-08,1.8816445469856262,0.0],"scale":[0.6913166046142578,0.6913166046142578,0.6913166046142578]},{"mesh":10,"translation":[0.0,0.75,0.024437010288238525],"scale":[0.75,0.75,0.75]},{"mesh":11,"translation":[0.0,0.75,0.024437010288238525],"scale":[0.75,0.75,0.75]},{"mesh":12,"translation":[0.010939538478851318,0.4130046356468142,0.0],"scale":[0.41300624720764745,0.41300624720764745,0.41300624720764745]},{"mesh":13,"translation":[0.0,0.5499999523162842,0.0],"scale":[1.0,1.0,1.0]},{"mesh":14,"translation":[-0.22499996423721313,0.4157361211255193,0.0],"scale":[0.39573611598461866,0.39573611598461866,0.39573611598461866]},{"mesh":15,"translation":[0.22499996423721313,0.4157361211255193,0.0],"scale":[0.39573611598461866,0.39573611598461866,0.39573611598461866]},{"mesh":16,"translation":[0.0,0.6570144817233086,0.047811999917030334],"scale":[1.0,1.0,1.0]},{"mesh":17,"translation":[0.004168421030044556,0.44995859265327454,-0.00814908742904663],"scale":[0.9833149313926697,0.9833149313926697,0.9833149313926697]},{"mesh":18,"translation":[0.017641723155975342,0.5652716429904103,-0.019483298063278198],"scale":[0.9662410914897919,0.9662410914897919,0.9662410914897919]},{"mesh":19,"translation":[0.014254450798034668,0.6271820664405823,0.03396788239479065],"scale":[0.9071395099163055,0.9071395099163055,0.9071395099163055]},{"mesh":20,"translation":[-0.0005467534065246582,0.4956170730292797,-0.02821160852909088],"scale":[0.5982243604958057,0.5982243604958057,0.5982243604958057]},{"mesh":21,"translation":[9.5367431640625e-07,0.5063388086855412,-4.470348358154297e-08],"scale":[0.6063386462628841,0.6063386462628841,0.6063386462628841]},{"mesh":22,"translation":[0.034006476402282715,1.0881782099604607,0.0010093450546264648],"scale":[1.0881781056523323,1.0881781056523323,1.0881781056523323]},{"mesh":23,"translation":[0.012696444988250732,1.2523135840892792,0.004029750823974609],"scale":[1.252313643693924,1.252313643693924,1.252313643693924]},{"mesh":24,"translation":[0.028027385473251343,1.0562076047062874,-0.006313741207122803],"scale":[1.0562074705958366,1.0562074705958366,1.0562074705958366]},{"mesh":25,"translation":[-0.0112810879945755,0.09729669873559033,-0.01104782521724701],"scale":[0.24407066404819489,0.24407066404819489,0.24407066404819489]},{"mesh":26,"translation":[-1.1026859283447266e-06,0.10585602596402133,-7.078051567077637e-08],"scale":[0.10585603639483487,0.10585603639483487,0.10585603639483487]},{"mesh":27,"translation":[0.0,0.10500106513489982,0.0],"scale":[0.10500000417232513,0.10500000417232513,0.10500000417232513]},{"mesh":28,"translation":[0.0,0.07500000298023224,0.0],"scale":[0.20000000298023224,0.20000000298023224,0.20000000298023224]},{"mesh":29,"translation":[8.940696716308594e-06,0.029890128411352634,-0.0059017613530159],"scale":[0.07977399975061417,0.07977399975061417,0.07977399975061417]},{"mesh":30,"translation":[0.0003710892051458359,0.13873529434204102,-0.11007881909608841],"scale":[0.13873529434204102,0.13873529434204102,0.13873529434204102]},{"mesh":31,"translation":[0.0003710892051458359,0.13873529434204102,-0.11007881909608841],"scale":[0.13873529434204102,0.13873529434204102,0.13873529434204102]},{"mesh":32,"translation":[9.387731552124023e-07,0.11999998241662979,-0.005000069737434387],"scale":[0.11999998241662979,0.11999998241662979,0.11999998241662979]},{"mesh":33,"translation":[3.203749656677246e-07,0.09420759230852127,0.04003927856683731],"scale":[0.2528398260474205,0.2528398260474205,0.2528398260474205]},{"mesh":34,"translation":[3.725290298461914e-09,0.0525022359564673,0.0],"scale":[0.07000000029802322,0.07000000029802322,0.07000000029802322]},{"mesh":35,"translation":[0.0,0.2580000162124634,0.0],"scale":[0.2580000162124634,0.2580000162124634,0.2580000162124634]},{"mesh":36,"translation":[-0.001559525728225708,0.10499903559684753,0.0016142874956130981],"scale":[0.3429712951183319,0.3429712951183319,0.3429712951183319]},{"mesh":37,"translation":[3.725290298461914e-09,0.15090006589889526,-0.028941147029399872],"scale":[0.15090006589889526,0.15090006589889526,0.15090006589889526]}],"meshes":[{"name":"building_castle_blue","primitives":[{"attributes":{"POSITION":0,"NORMAL":1,"TEXCOORD_0":2},"indices":3,"material":0}]},{"name":"building_church_red","primitives":[{"attributes":{"POSITION":4,"NORMAL":5,"TEXCOORD_0":6},"indices":7,"material":0}]},{"name":"building_tavern_red","primitives":[{"attributes":{"POSITION":8,"NORMAL":9,"TEXCOORD_0":10},"indices":11,"material":0}]},{"name":"building_blacksmith_blue","primitives":[{"attributes":{"POSITION":12,"NORMAL":13,"TEXCOORD_0":14},"indices":15,"material":0}]},{"name":"building_windmill_top_fan_yellow","primitives":[{"attributes":{"POSITION":16,"NORMAL":17,"TEXCOORD_0":18},"indices":19,"material":0}]},{"name":"building_windmill_top_yellow","primitives":[{"attributes":{"POSITION":20,"NORMAL":21,"TEXCOORD_0":22},"indices":23,"material":0}]},{"name":"building_windmill_yellow","primitives":[{"attributes":{"POSITION":24,"NORMAL":25,"TEXCOORD_0":26},"indices":27,"material":0}]},{"name":"building_tower_A_top_blue","primitives":[{"attributes":{"POSITION":28,"NORMAL":29,"TEXCOORD_0":30},"indices":31,"material":0}]},{"name":"building_tower_A_blue","primitives":[{"attributes":{"POSITION":32,"NORMAL":33,"TEXCOORD_0":34},"indices":35,"material":0}]},{"name":"building_tower_B_top_red","primitives":[{"attributes":{"POSITION":36,"NORMAL":37,"TEXCOORD_0":38},"indices":39,"material":0}]},{"name":"building_tower_B_red","primitives":[{"attributes":{"POSITION":40,"NORMAL":41,"TEXCOORD_0":42},"indices":43,"material":0}]},{"name":"building_tower_base_blue","primitives":[{"attributes":{"POSITION":44,"NORMAL":45,"TEXCOORD_0":46},"indices":47,"material":0}]},{"name":"building_well_blue","primitives":[{"attributes":{"POSITION":48,"NORMAL":49,"TEXCOORD_0":50},"indices":51,"material":0}]},{"name":"wall_straight","primitives":[{"attributes":{"POSITION":52,"NORMAL":53,"TEXCOORD_0":54},"indices":55,"material":0}]},{"name":"wall_straight_gate_door_left","primitives":[{"attributes":{"POSITION":56,"NORMAL":57,"TEXCOORD_0":58},"indices":59,"material":0}]},{"name":"wall_straight_gate_door_right","primitives":[{"attributes":{"POSITION":60,"NORMAL":61,"TEXCOORD_0":62},"indices":63,"material":0}]},{"name":"wall_straight_gate","primitives":[{"attributes":{"POSITION":64,"NORMAL":65,"TEXCOORD_0":66},"indices":67,"material":0}]},{"name":"trees_A_large","primitives":[{"attributes":{"POSITION":68,"NORMAL":69,"TEXCOORD_0":70},"indices":71,"material":0}]},{"name":"trees_B_large","primitives":[{"attributes":{"POSITION":72,"NORMAL":73,"TEXCOORD_0":74},"indices":75,"material":0}]},{"name":"trees_A_medium","primitives":[{"attributes":{"POSITION":76,"NORMAL":77,"TEXCOORD_0":78},"indices":79,"material":0}]},{"name":"tree_single_A","primitives":[{"attributes":{"POSITION":80,"NORMAL":81,"TEXCOORD_0":82},"indices":83,"material":0}]},{"name":"tree_single_B","primitives":[{"attributes":{"POSITION":84,"NORMAL":85,"TEXCOORD_0":86},"indices":87,"material":0}]},{"name":"mountain_A_grass_trees","primitives":[{"attributes":{"POSITION":88,"NORMAL":89,"TEXCOORD_0":90},"indices":91,"material":0}]},{"name":"mountain_B_grass_trees","primitives":[{"attributes":{"POSITION":92,"NORMAL":93,"TEXCOORD_0":94},"indices":95,"material":0}]},{"name":"mountain_C_grass_trees","primitives":[{"attributes":{"POSITION":96,"NORMAL":97,"TEXCOORD_0":98},"indices":99,"material":0}]},{"name":"rock_single_E","primitives":[{"attributes":{"POSITION":100,"NORMAL":101,"TEXCOORD_0":102},"indices":103,"material":0}]},{"name":"barrel","primitives":[{"attributes":{"POSITION":104,"NORMAL":105,"TEXCOORD_0":106},"indices":107,"material":0}]},{"name":"crate_A_big","primitives":[{"attributes":{"POSITION":108,"NORMAL":109,"TEXCOORD_0":110},"indices":111,"material":0}]},{"name":"crate_long_A","primitives":[{"attributes":{"POSITION":112,"NORMAL":113,"TEXCOORD_0":114},"indices":115,"material":0}]},{"name":"sack","primitives":[{"attributes":{"POSITION":116,"NORMAL":117,"TEXCOORD_0":118},"indices":119,"material":0}]},{"name":"flag_red","primitives":[{"attributes":{"POSITION":120,"NORMAL":121,"TEXCOORD_0":122},"indices":123,"material":0}]},{"name":"flag_blue","primitives":[{"attributes":{"POSITION":124,"NORMAL":125,"TEXCOORD_0":126},"indices":127,"material":0}]},{"name":"weaponrack","primitives":[{"attributes":{"POSITION":128,"NORMAL":129,"TEXCOORD_0":130},"indices":131,"material":0}]},{"name":"wheelbarrow","primitives":[{"attributes":{"POSITION":132,"NORMAL":133,"TEXCOORD_0":134},"indices":135,"material":0}]},{"name":"bucket_water","primitives":[{"attributes":{"POSITION":136,"NORMAL":137,"TEXCOORD_0":138},"indices":139,"material":0}]},{"name":"tent","primitives":[{"attributes":{"POSITION":140,"NORMAL":141,"TEXCOORD_0":142},"indices":143,"material":0}]},{"name":"Cube.569","primitives":[{"attributes":{"POSITION":144,"NORMAL":145,"TEXCOORD_0":146},"indices":147,"material":0}]},{"name":"target","primitives":[{"attributes":{"POSITION":148,"NORMAL":149,"TEXCOORD_0":150},"indices":151,"material":0}]}],"accessors":[{"bufferView":0,"componentType":5122,"normalized":true,"count":8868,"type":"VEC3","min":[-16267,-32767,-18579],"max":[16267,32767,18579]},{"bufferView":1,"componentType":5120,"normalized":true,"count":8868,"type":"VEC3"},{"bufferView":2,"componentType":5123,"count":8868,"type":"VEC2","normalized":true},{"bufferView":3,"componentType":5123,"count":16977,"type":"SCALAR"},{"bufferView":4,"componentType":5122,"normalized":true,"count":2504,"type":"VEC3","min":[-20496,-32767,-23006],"max":[20496,32767,23006]},{"bufferView":5,"componentType":5120,"normalized":true,"count":2504,"type":"VEC3"},{"bufferView":6,"componentType":5123,"count":2504,"type":"VEC2","normalized":true},{"bufferView":7,"componentType":5123,"count":4803,"type":"SCALAR"},{"bufferView":8,"componentType":5122,"normalized":true,"count":4778,"type":"VEC3","min":[-27490,-32767,-31258],"max":[27490,32767,31258]},{"bufferView":9,"componentType":5120,"normalized":true,"count":4778,"type":"VEC3"},{"bufferView":10,"componentType":5123,"count":4778,"type":"VEC2","normalized":true},{"bufferView":11,"componentType":5123,"count":8976,"type":"SCALAR"},{"bufferView":12,"componentType":5122,"normalized":true,"count":3393,"type":"VEC3","min":[-32767,-25069,-31687],"max":[32767,25069,31687]},{"bufferView":13,"componentType":5120,"normalized":true,"count":3393,"type":"VEC3"},{"bufferView":14,"componentType":5123,"count":3393,"type":"VEC2","normalized":true},{"bufferView":15,"componentType":5123,"count":7230,"type":"SCALAR"},{"bufferView":16,"componentType":5122,"normalized":true,"count":695,"type":"VEC3","min":[-32767,-32767,-3449],"max":[32767,32767,3449]},{"bufferView":17,"componentType":5120,"normalized":true,"count":695,"type":"VEC3"},{"bufferView":18,"componentType":5123,"count":695,"type":"VEC2","normalized":true},{"bufferView":19,"componentType":5123,"count":1080,"type":"SCALAR"},{"bufferView":20,"componentType":5122,"normalized":true,"count":697,"type":"VEC3","min":[-31360,-32767,-31367],"max":[31360,32767,31367]},{"bufferView":21,"componentType":5120,"normalized":true,"count":697,"type":"VEC3"},{"bufferView":22,"componentType":5123,"count":697,"type":"VEC2","normalized":true},{"bufferView":23,"componentType":5123,"count":1539,"type":"SCALAR"},{"bufferView":24,"componentType":5122,"normalized":true,"count":2538,"type":"VEC3","min":[-32767,-19946,-23109],"max":[32767,19946,23109]},{"bufferView":25,"componentType":5120,"normalized":true,"count":2538,"type":"VEC3"},{"bufferView":26,"componentType":5123,"count":2538,"type":"VEC2","normalized":true},{"bufferView":27,"componentType":5123,"count":5340,"type":"SCALAR"},{"bufferView":28,"componentType":5122,"normalized":true,"count":861,"type":"VEC3","min":[-28377,-26107,-32767],"max":[28377,26107,32767]},{"bufferView":29,"componentType":5120,"normalized":true,"count":861,"type":"VEC3"},{"bufferView":30,"componentType":5123,"count":861,"type":"VEC2","normalized":true},{"bufferView":31,"componentType":5123,"count":1800,"type":"SCALAR"},{"bufferView":32,"componentType":5122,"normalized":true,"count":2265,"type":"VEC3","min":[-20311,-32767,-24272],"max":[20311,32767,24272]},{"bufferView":33,"componentType":5120,"normalized":true,"count":2265,"type":"VEC3"},{"bufferView":34,"componentType":5123,"count":2265,"type":"VEC2","normalized":true},{"bufferView":35,"componentType":5123,"count":4614,"type":"SCALAR"},{"bufferView":36,"componentType":5122,"normalized":true,"count":1374,"type":"VEC3","min":[-28377,-28615,-32767],"max":[28377,28615,32767]},{"bufferView":37,"componentType":5120,"normalized":true,"count":1374,"type":"VEC3"},{"bufferView":38,"componentType":5123,"count":1374,"type":"VEC2","normalized":true},{"bufferView":39,"componentType":5123,"count":2640,"type":"SCALAR"},{"bufferView":40,"componentType":5122,"normalized":true,"count":2265,"type":"VEC3","min":[-20311,-32767,-24272],"max":[20311,32767,24272]},{"bufferView":41,"componentType":5120,"normalized":true,"count":2265,"type":"VEC3"},{"bufferView":42,"componentType":5123,"count":2265,"type":"VEC2","normalized":true},{"bufferView":43,"componentType":5123,"count":4614,"type":"SCALAR"},{"bufferView":44,"componentType":5122,"normalized":true,"count":2265,"type":"VEC3","min":[-20311,-32767,-24272],"max":[20311,32767,24272]},{"bufferView":45,"componentType":5120,"normalized":true,"count":2265,"type":"VEC3"},{"bufferView":46,"componentType":5123,"count":2265,"type":"VEC2","normalized":true},{"bufferView":47,"componentType":5123,"count":4614,"type":"SCALAR"},{"bufferView":48,"componentType":5122,"normalized":true,"count":1187,"type":"VEC3","min":[-25856,-32767,-29780],"max":[25856,32767,29780]},{"bufferView":49,"componentType":5120,"normalized":true,"count":1187,"type":"VEC3"},{"bufferView":50,"componentType":5123,"count":1187,"type":"VEC2","normalized":true},{"bufferView":51,"componentType":5123,"count":2178,"type":"SCALAR"},{"bufferView":52,"componentType":5122,"normalized":true,"count":877,"type":"VEC3","min":[-32767,-18022,-13107],"max":[32767,18022,13107]},{"bufferView":53,"componentType":5120,"normalized":true,"count":877,"type":"VEC3"},{"bufferView":54,"componentType":5123,"count":877,"type":"VEC2","normalized":true},{"bufferView":55,"componentType":5123,"count":1512,"type":"SCALAR"},{"bufferView":56,"componentType":5122,"normalized":true,"count":402,"type":"VEC3","min":[-18630,-32767,-7368],"max":[18630,32767,7368]},{"bufferView":57,"componentType":5120,"normalized":true,"count":402,"type":"VEC3"},{"bufferView":58,"componentType":5123,"count":402,"type":"VEC2","normalized":true},{"bufferView":59,"componentType":5123,"count":720,"type":"SCALAR"},{"bufferView":60,"componentType":5122,"normalized":true,"count":402,"type":"VEC3","min":[-18630,-32767,-7368],"max":[18630,32767,7368]},{"bufferView":61,"componentType":5120,"normalized":true,"count":402,"type":"VEC3"},{"bufferView":62,"componentType":5123,"count":402,"type":"VEC2","normalized":true},{"bufferView":63,"componentType":5123,"count":720,"type":"SCALAR"},{"bufferView":64,"componentType":5122,"normalized":true,"count":520,"type":"VEC3","min":[-32767,-23167,-14673],"max":[32767,23167,14673]},{"bufferView":65,"componentType":5120,"normalized":true,"count":520,"type":"VEC3"},{"bufferView":66,"componentType":5123,"count":520,"type":"VEC2","normalized":true},{"bufferView":67,"componentType":5123,"count":1020,"type":"SCALAR"},{"bufferView":68,"componentType":5122,"normalized":true,"count":1620,"type":"VEC3","min":[-32409,-15436,-32767],"max":[32409,15436,32767]},{"bufferView":69,"componentType":5120,"normalized":true,"count":1620,"type":"VEC3"},{"bufferView":70,"componentType":5123,"count":1620,"type":"VEC2","normalized":true},{"bufferView":71,"componentType":5123,"count":2592,"type":"SCALAR"},{"bufferView":72,"componentType":5122,"normalized":true,"count":1335,"type":"VEC3","min":[-31356,-19916,-32767],"max":[31356,19916,32767]},{"bufferView":73,"componentType":5120,"normalized":true,"count":1335,"type":"VEC3"},{"bufferView":74,"componentType":5123,"count":1335,"type":"VEC2","normalized":true},{"bufferView":75,"componentType":5123,"count":4620,"type":"SCALAR"},{"bufferView":76,"componentType":5122,"normalized":true,"count":900,"type":"VEC3","min":[-31632,-23395,-32767],"max":[31632,23395,32767]},{"bufferView":77,"componentType":5120,"normalized":true,"count":900,"type":"VEC3"},{"bufferView":78,"componentType":5123,"count":900,"type":"VEC2","normalized":true},{"bufferView":79,"componentType":5123,"count":1440,"type":"SCALAR"},{"bufferView":80,"componentType":5122,"normalized":true,"count":95,"type":"VEC3","min":[-15719,-32767,-14981],"max":[15719,32767,14981]},{"bufferView":81,"componentType":5120,"normalized":true,"count":95,"type":"VEC3"},{"bufferView":82,"componentType":5123,"count":95,"type":"VEC2","normalized":true},{"bufferView":83,"componentType":5123,"count":150,"type":"SCALAR"},{"bufferView":84,"componentType":5122,"normalized":true,"count":189,"type":"VEC3","min":[-18506,-32767,-19458],"max":[18506,32767,19458]},{"bufferView":85,"componentType":5120,"normalized":true,"count":189,"type":"VEC3"},{"bufferView":86,"componentType":5123,"count":189,"type":"VEC2","normalized":true},{"bufferView":87,"componentType":5123,"count":660,"type":"SCALAR"},{"bufferView":88,"componentType":5122,"normalized":true,"count":766,"type":"VEC3","min":[-27934,-32767,-28247],"max":[27934,32767,28247]},{"bufferView":89,"componentType":5120,"normalized":true,"count":766,"type":"VEC3"},{"bufferView":90,"componentType":5123,"count":766,"type":"VEC2","normalized":true},{"bufferView":91,"componentType":5123,"count":1404,"type":"SCALAR"},{"bufferView":92,"componentType":5122,"normalized":true,"count":932,"type":"VEC3","min":[-23562,-32767,-24545],"max":[23562,32767,24545]},{"bufferView":93,"componentType":5120,"normalized":true,"count":932,"type":"VEC3"},{"bufferView":94,"componentType":5123,"count":932,"type":"VEC2","normalized":true},{"bufferView":95,"componentType":5123,"count":1674,"type":"SCALAR"},{"bufferView":96,"componentType":5122,"normalized":true,"count":1214,"type":"VEC3","min":[-27279,-32767,-31380],"max":[27279,32767,31380]},{"bufferView":97,"componentType":5120,"normalized":true,"count":1214,"type":"VEC3"},{"bufferView":98,"componentType":5123,"count":1214,"type":"VEC2","normalized":true},{"bufferView":99,"componentType":5123,"count":2250,"type":"SCALAR"},{"bufferView":100,"componentType":5122,"normalized":true,"count":121,"type":"VEC3","min":[-32767,-13075,-23328],"max":[32767,13075,23328]},{"bufferView":101,"componentType":5120,"normalized":true,"count":121,"type":"VEC3"},{"bufferView":102,"componentType":5123,"count":121,"type":"VEC2","normalized":true},{"bufferView":103,"componentType":5123,"count":213,"type":"SCALAR"},{"bufferView":104,"componentType":5122,"normalized":true,"count":441,"type":"VEC3","min":[-31183,-32767,-31183],"max":[31183,32767,31183]},{"bufferView":105,"componentType":5120,"normalized":true,"count":441,"type":"VEC3"},{"bufferView":106,"componentType":5123,"count":441,"type":"VEC2","normalized":true},{"bufferView":107,"componentType":5123,"count":720,"type":"SCALAR"},{"bufferView":108,"componentType":5122,"normalized":true,"count":194,"type":"VEC3","min":[-32767,-32767,-32767],"max":[32767,32767,32767]},{"bufferView":109,"componentType":5120,"normalized":true,"count":194,"type":"VEC3"},{"bufferView":110,"componentType":5123,"count":194,"type":"VEC2","normalized":true},{"bufferView":111,"componentType":5123,"count":396,"type":"SCALAR"},{"bufferView":112,"componentType":5122,"normalized":true,"count":346,"type":"VEC3","min":[-32767,-12288,-16384],"max":[32767,12288,16384]},{"bufferView":113,"componentType":5120,"normalized":true,"count":346,"type":"VEC3"},{"bufferView":114,"componentType":5123,"count":346,"type":"VEC2","normalized":true},{"bufferView":115,"componentType":5123,"count":1566,"type":"SCALAR"},{"bufferView":116,"componentType":5122,"normalized":true,"count":84,"type":"VEC3","min":[-21877,-13284,-32767],"max":[21877,13284,32767]},{"bufferView":117,"componentType":5120,"normalized":true,"count":84,"type":"VEC3"},{"bufferView":118,"componentType":5123,"count":84,"type":"VEC2","normalized":true},{"bufferView":119,"componentType":5123,"count":276,"type":"SCALAR"},{"bufferView":120,"componentType":5122,"normalized":true,"count":68,"type":"VEC3","min":[-6496,-32767,-31174],"max":[6496,32767,31174]},{"bufferView":121,"componentType":5120,"normalized":true,"count":68,"type":"VEC3"},{"bufferView":122,"componentType":5123,"count":68,"type":"VEC2","normalized":true},{"bufferView":123,"componentType":5123,"count":144,"type":"SCALAR"},{"bufferView":124,"componentType":5122,"normalized":true,"count":68,"type":"VEC3","min":[-6496,-32767,-31174],"max":[6496,32767,31174]},{"bufferView":125,"componentType":5120,"normalized":true,"count":68,"type":"VEC3"},{"bufferView":126,"componentType":5123,"count":68,"type":"VEC2","normalized":true},{"bufferView":127,"componentType":5123,"count":144,"type":"SCALAR"},{"bufferView":128,"componentType":5122,"normalized":true,"count":84,"type":"VEC3","min":[-27306,-32767,-17749],"max":[27306,32767,17749]},{"bufferView":129,"componentType":5120,"normalized":true,"count":84,"type":"VEC3"},{"bufferView":130,"componentType":5123,"count":84,"type":"VEC2","normalized":true},{"bufferView":131,"componentType":5123,"count":126,"type":"SCALAR"},{"bufferView":132,"componentType":5122,"normalized":true,"count":520,"type":"VEC3","min":[-15422,-12209,-32767],"max":[15422,12209,32767]},{"bufferView":133,"componentType":5120,"normalized":true,"count":520,"type":"VEC3"},{"bufferView":134,"componentType":5123,"count":520,"type":"VEC2","normalized":true},{"bufferView":135,"componentType":5123,"count":1188,"type":"SCALAR"},{"bufferView":136,"componentType":5122,"normalized":true,"count":194,"type":"VEC3","min":[-32767,-24575,-32767],"max":[32767,24575,32767]},{"bufferView":137,"componentType":5120,"normalized":true,"count":194,"type":"VEC3"},{"bufferView":138,"componentType":5123,"count":194,"type":"VEC2","normalized":true},{"bufferView":139,"componentType":5123,"count":384,"type":"SCALAR"},{"bufferView":140,"componentType":5122,"normalized":true,"count":176,"type":"VEC3","min":[-32767,-32767,-32767],"max":[32767,32767,32767]},{"bufferView":141,"componentType":5120,"normalized":true,"count":176,"type":"VEC3"},{"bufferView":142,"componentType":5123,"count":176,"type":"VEC2","normalized":true},{"bufferView":143,"componentType":5123,"count":258,"type":"SCALAR"},{"bufferView":144,"componentType":5122,"normalized":true,"count":330,"type":"VEC3","min":[-32767,-10032,-15788],"max":[32767,10032,15788]},{"bufferView":145,"componentType":5120,"normalized":true,"count":330,"type":"VEC3"},{"bufferView":146,"componentType":5123,"count":330,"type":"VEC2","normalized":true},{"bufferView":147,"componentType":5123,"count":660,"type":"SCALAR"},{"bufferView":148,"componentType":5122,"normalized":true,"count":193,"type":"VEC3","min":[-25981,-32767,-15430],"max":[25981,32767,15430]},{"bufferView":149,"componentType":5120,"normalized":true,"count":193,"type":"VEC3"},{"bufferView":150,"componentType":5123,"count":193,"type":"VEC2","normalized":true},{"bufferView":151,"componentType":5123,"count":468,"type":"SCALAR"}],"bufferViews":[{"buffer":0,"byteOffset":0,"byteLength":70944,"byteStride":8,"target":34962},{"buffer":0,"byteOffset":70944,"byteLength":35472,"byteStride":4,"target":34962},{"buffer":0,"byteOffset":106416,"byteLength":35472,"target":34962},{"buffer":0,"byteOffset":141888,"byteLength":33954,"target":34963},{"buffer":0,"byteOffset":175844,"byteLength":20032,"byteStride":8,"target":34962},{"buffer":0,"byteOffset":195876,"byteLength":10016,"byteStride":4,"target":34962},{"buffer":0,"byteOffset":205892,"byteLength":10016,"target":34962},{"buffer":0,"byteOffset":215908,"byteLength":9606,"target":34963},{"buffer":0,"byteOffset":225516,"byteLength":38224,"byteStride":8,"target":34962},{"buffer":0,"byteOffset":263740,"byteLength":19112,"byteStride":4,"target":34962},{"buffer":0,"byteOffset":282852,"byteLength":19112,"target":34962},{"buffer":0,"byteOffset":301964,"byteLength":17952,"target":34963},{"buffer":0,"byteOffset":319916,"byteLength":27144,"byteStride":8,"target":34962},{"buffer":0,"byteOffset":347060,"byteLength":13572,"byteStride":4,"target":34962},{"buffer":0,"byteOffset":360632,"byteLength":13572,"target":34962},{"buffer":0,"byteOffset":374204,"byteLength":14460,"target":34963},{"buffer":0,"byteOffset":388664,"byteLength":5560,"byteStride":8,"target":34962},{"buffer":0,"byteOffset":394224,"byteLength":2780,"byteStride":4,"target":34962},{"buffer":0,"byteOffset":397004,"byteLength":2780,"target":34962},{"buffer":0,"byteOffset":399784,"byteLength":2160,"target":34963},{"buffer":0,"byteOffset":401944,"byteLength":5576,"byteStride":8,"target":34962},{"buffer":0,"byteOffset":407520,"byteLength":2788,"byteStride":4,"target":34962},{"buffer":0,"byteOffset":410308,"byteLength":2788,"target":34962},{"buffer":0,"byteOffset":413096,"byteLength":3078,"target":34963},{"buffer":0,"byteOffset":416176,"byteLength":20304,"byteStride":8,"target":34962},{"buffer":0,"byteOffset":436480,"byteLength":10152,"byteStride":4,"target":34962},{"buffer":0,"byteOffset":446632,"byteLength":10152,"target":34962},{"buffer":0,"byteOffset":456784,"byteLength":10680,"target":34963},{"buffer":0,"byteOffset":467464,"byteLength":6888,"byteStride":8,"target":34962},{"buffer":0,"byteOffset":474352,"byteLength":3444,"byteStride":4,"target":34962},{"buffer":0,"byteOffset":477796,"byteLength":3444,"target":34962},{"buffer":0,"byteOffset":481240,"byteLength":3600,"target":34963},{"buffer":0,"byteOffset":484840,"byteLength":18120,"byteStride":8,"target":34962},{"buffer":0,"byteOffset":502960,"byteLength":9060,"byteStride":4,"target":34962},{"buffer":0,"byteOffset":512020,"byteLength":9060,"target":34962},{"buffer":0,"byteOffset":521080,"byteLength":9228,"target":34963},{"buffer":0,"byteOffset":530308,"byteLength":10992,"byteStride":8,"target":34962},{"buffer":0,"byteOffset":541300,"byteLength":5496,"byteStride":4,"target":34962},{"buffer":0,"byteOffset":546796,"byteLength":5496,"target":34962},{"buffer":0,"byteOffset":552292,"byteLength":5280,"target":34963},{"buffer":0,"byteOffset":557572,"byteLength":18120,"byteStride":8,"target":34962},{"buffer":0,"byteOffset":575692,"byteLength":9060,"byteStride":4,"target":34962},{"buffer":0,"byteOffset":584752,"byteLength":9060,"target":34962},{"buffer":0,"byteOffset":593812,"byteLength":9228,"target":34963},{"buffer":0,"byteOffset":603040,"byteLength":18120,"byteStride":8,"target":34962},{"buffer":0,"byteOffset":621160,"byteLength":9060,"byteStride":4,"target":34962},{"buffer":0,"byteOffset":630220,"byteLength":9060,"target":34962},{"buffer":0,"byteOffset":639280,"byteLength":9228,"target":34963},{"buffer":0,"byteOffset":648508,"byteLength":9496,"byteStride":8,"target":34962},{"buffer":0,"byteOffset":658004,"byteLength":4748,"byteStride":4,"target":34962},{"buffer":0,"byteOffset":662752,"byteLength":4748,"target":34962},{"buffer":0,"byteOffset":667500,"byteLength":4356,"target":34963},{"buffer":0,"byteOffset":671856,"byteLength":7016,"byteStride":8,"target":34962},{"buffer":0,"byteOffset":678872,"byteLength":3508,"byteStride":4,"target":34962},{"buffer":0,"byteOffset":682380,"byteLength":3508,"target":34962},{"buffer":0,"byteOffset":685888,"byteLength":3024,"target":34963},{"buffer":0,"byteOffset":688912,"byteLength":3216,"byteStride":8,"target":34962},{"buffer":0,"byteOffset":692128,"byteLength":1608,"byteStride":4,"target":34962},{"buffer":0,"byteOffset":693736,"byteLength":1608,"target":34962},{"buffer":0,"byteOffset":695344,"byteLength":1440,"target":34963},{"buffer":0,"byteOffset":696784,"byteLength":3216,"byteStride":8,"target":34962},{"buffer":0,"byteOffset":700000,"byteLength":1608,"byteStride":4,"target":34962},{"buffer":0,"byteOffset":701608,"byteLength":1608,"target":34962},{"buffer":0,"byteOffset":703216,"byteLength":1440,"target":34963},{"buffer":0,"byteOffset":704656,"byteLength":4160,"byteStride":8,"target":34962},{"buffer":0,"byteOffset":708816,"byteLength":2080,"byteStride":4,"target":34962},{"buffer":0,"byteOffset":710896,"byteLength":2080,"target":34962},{"buffer":0,"byteOffset":712976,"byteLength":2040,"target":34963},{"buffer":0,"byteOffset":715016,"byteLength":12960,"byteStride":8,"target":34962},{"buffer":0,"byteOffset":727976,"byteLength":6480,"byteStride":4,"target":34962},{"buffer":0,"byteOffset":734456,"byteLength":6480,"target":34962},{"buffer":0,"byteOffset":740936,"byteLength":5184,"target":34963},{"buffer":0,"byteOffset":746120,"byteLength":10680,"byteStride":8,"target":34962},{"buffer":0,"byteOffset":756800,"byteLength":5340,"byteStride":4,"target":34962},{"buffer":0,"byteOffset":762140,"byteLength":5340,"target":34962},{"buffer":0,"byteOffset":767480,"byteLength":9240,"target":34963},{"buffer":0,"byteOffset":776720,"byteLength":7200,"byteStride":8,"target":34962},{"buffer":0,"byteOffset":783920,"byteLength":3600,"byteStride":4,"target":34962},{"buffer":0,"byteOffset":787520,"byteLength":3600,"target":34962},{"buffer":0,"byteOffset":791120,"byteLength":2880,"target":34963},{"buffer":0,"byteOffset":794000,"byteLength":760,"byteStride":8,"target":34962},{"buffer":0,"byteOffset":794760,"byteLength":380,"byteStride":4,"target":34962},{"buffer":0,"byteOffset":795140,"byteLength":380,"target":34962},{"buffer":0,"byteOffset":795520,"byteLength":300,"target":34963},{"buffer":0,"byteOffset":795820,"byteLength":1512,"byteStride":8,"target":34962},{"buffer":0,"byteOffset":797332,"byteLength":756,"byteStride":4,"target":34962},{"buffer":0,"byteOffset":798088,"byteLength":756,"target":34962},{"buffer":0,"byteOffset":798844,"byteLength":1320,"target":34963},{"buffer":0,"byteOffset":800164,"byteLength":6128,"byteStride":8,"target":34962},{"buffer":0,"byteOffset":806292,"byteLength":3064,"byteStride":4,"target":34962},{"buffer":0,"byteOffset":809356,"byteLength":3064,"target":34962},{"buffer":0,"byteOffset":812420,"byteLength":2808,"target":34963},{"buffer":0,"byteOffset":815228,"byteLength":7456,"byteStride":8,"target":34962},{"buffer":0,"byteOffset":822684,"byteLength":3728,"byteStride":4,"target":34962},{"buffer":0,"byteOffset":826412,"byteLength":3728,"target":34962},{"buffer":0,"byteOffset":830140,"byteLength":3348,"target":34963},{"buffer":0,"byteOffset":833488,"byteLength":9712,"byteStride":8,"target":34962},{"buffer":0,"byteOffset":843200,"byteLength":4856,"byteStride":4,"target":34962},{"buffer":0,"byteOffset":848056,"byteLength":4856,"target":34962},{"buffer":0,"byteOffset":852912,"byteLength":4500,"target":34963},{"buffer":0,"byteOffset":857412,"byteLength":968,"byteStride":8,"target":34962},{"buffer":0,"byteOffset":858380,"byteLength":484,"byteStride":4,"target":34962},{"buffer":0,"byteOffset":858864,"byteLength":484,"target":34962},{"buffer":0,"byteOffset":859348,"byteLength":426,"target":34963},{"buffer":0,"byteOffset":859776,"byteLength":3528,"byteStride":8,"target":34962},{"buffer":0,"byteOffset":863304,"byteLength":1764,"byteStride":4,"target":34962},{"buffer":0,"byteOffset":865068,"byteLength":1764,"target":34962},{"buffer":0,"byteOffset":866832,"byteLength":1440,"target":34963},{"buffer":0,"byteOffset":868272,"byteLength":1552,"byteStride":8,"target":34962},{"buffer":0,"byteOffset":869824,"byteLength":776,"byteStride":4,"target":34962},{"buffer":0,"byteOffset":870600,"byteLength":776,"target":34962},{"buffer":0,"byteOffset":871376,"byteLength":792,"target":34963},{"buffer":0,"byteOffset":872168,"byteLength":2768,"byteStride":8,"target":34962},{"buffer":0,"byteOffset":874936,"byteLength":1384,"byteStride":4,"target":34962},{"buffer":0,"byteOffset":876320,"byteLength":1384,"target":34962},{"buffer":0,"byteOffset":877704,"byteLength":3132,"target":34963},{"buffer":0,"byteOffset":880836,"byteLength":672,"byteStride":8,"target":34962},{"buffer":0,"byteOffset":881508,"byteLength":336,"byteStride":4,"target":34962},{"buffer":0,"byteOffset":881844,"byteLength":336,"target":34962},{"buffer":0,"byteOffset":882180,"byteLength":552,"target":34963},{"buffer":0,"byteOffset":882732,"byteLength":544,"byteStride":8,"target":34962},{"buffer":0,"byteOffset":883276,"byteLength":272,"byteStride":4,"target":34962},{"buffer":0,"byteOffset":883548,"byteLength":272,"target":34962},{"buffer":0,"byteOffset":883820,"byteLength":288,"target":34963},{"buffer":0,"byteOffset":884108,"byteLength":544,"byteStride":8,"target":34962},{"buffer":0,"byteOffset":884652,"byteLength":272,"byteStride":4,"target":34962},{"buffer":0,"byteOffset":884924,"byteLength":272,"target":34962},{"buffer":0,"byteOffset":885196,"byteLength":288,"target":34963},{"buffer":0,"byteOffset":885484,"byteLength":672,"byteStride":8,"target":34962},{"buffer":0,"byteOffset":886156,"byteLength":336,"byteStride":4,"target":34962},{"buffer":0,"byteOffset":886492,"byteLength":336,"target":34962},{"buffer":0,"byteOffset":886828,"byteLength":252,"target":34963},{"buffer":0,"byteOffset":887080,"byteLength":4160,"byteStride":8,"target":34962},{"buffer":0,"byteOffset":891240,"byteLength":2080,"byteStride":4,"target":34962},{"buffer":0,"byteOffset":893320,"byteLength":2080,"target":34962},{"buffer":0,"byteOffset":895400,"byteLength":2376,"target":34963},{"buffer":0,"byteOffset":897776,"byteLength":1552,"byteStride":8,"target":34962},{"buffer":0,"byteOffset":899328,"byteLength":776,"byteStride":4,"target":34962},{"buffer":0,"byteOffset":900104,"byteLength":776,"target":34962},{"buffer":0,"byteOffset":900880,"byteLength":768,"target":34963},{"buffer":0,"byteOffset":901648,"byteLength":1408,"byteStride":8,"target":34962},{"buffer":0,"byteOffset":903056,"byteLength":704,"byteStride":4,"target":34962},{"buffer":0,"byteOffset":903760,"byteLength":704,"target":34962},{"buffer":0,"byteOffset":904464,"byteLength":516,"target":34963},{"buffer":0,"byteOffset":904980,"byteLength":2640,"byteStride":8,"target":34962},{"buffer":0,"byteOffset":907620,"byteLength":1320,"byteStride":4,"target":34962},{"buffer":0,"byteOffset":908940,"byteLength":1320,"target":34962},{"buffer":0,"byteOffset":910260,"byteLength":1320,"target":34963},{"buffer":0,"byteOffset":911580,"byteLength":1544,"byteStride":8,"target":34962},{"buffer":0,"byteOffset":913124,"byteLength":772,"byteStride":4,"target":34962},{"buffer":0,"byteOffset":913896,"byteLength":772,"target":34962},{"buffer":0,"byteOffset":914668,"byteLength":936,"target":34963}],"buffers":[{"byteLength":915604,"uri":"town_kit.bin"}],"materials":[{"name":"hexagons_medieval","pbrMetallicRoughness":{"baseColorTexture":{"index":0},"metallicFactor":0,"roughnessFactor":0.5}}],"textures":[{"sampler":0,"source":0}],"images":[{"mimeType":"image/png","uri":"hexagons_medieval.png"}],"samplers":[{"magFilter":9729,"minFilter":9987}],"extensionsUsed":["KHR_mesh_quantization"],"extensionsRequired":["KHR_mesh_quantization"]}